<svg width="525" height="435" viewBox="0 0 525 435" fill="none" xmlns="http://www.w3.org/2000/svg">
<path d="M437.435 317.175C437.435 321.593 433.853 325.175 429.435 325.175C425.017 325.175 421.435 321.593 421.435 317.175C421.435 312.756 423.016 316.175 427.435 316.175C431.853 316.175 437.435 312.756 437.435 317.175Z" fill="#091C1B"/>
<path fill-rule="evenodd" clip-rule="evenodd" d="M157.185 340.816C156.309 354.388 158.784 365.169 164.018 373.206C169.812 382.102 178.818 387.379 189.718 389.423C210.899 393.397 239.486 385.253 267.417 367.609C292.482 397.164 326.252 404.581 355.005 394.202C384.332 383.616 408.085 354.656 412.056 312.711C438.256 324.196 463.405 319.256 479.955 305.017C496.983 290.368 504.706 266.032 495.213 240.329C519.07 192.045 509.115 152.018 483.618 128.505C458.895 105.706 419.888 98.7761 384.291 114.694C384.83 67.9798 355.555 35.0503 317.658 22.4839C279.578 9.85685 232.719 17.7393 198.385 52.646C192.254 44.2883 181.61 42.8147 172.392 46.1528C163.335 49.4323 155.222 57.441 153.215 68.6735C136.591 51.02 111.19 48.7016 89.0463 56.0472C65.7847 63.7638 45.3729 82.3777 41.8922 106.253C40.413 116.399 42.2352 129.324 46.7797 141.697C50.8485 152.775 57.1645 163.589 65.4735 171.691C22.8785 205.879 16.93 253.045 36.3363 289.273C55.6707 325.366 99.9616 350.242 157.185 340.816ZM316.399 26.2806C279.428 14.0213 233.788 21.7938 200.506 56.2L200.542 56.2762L200.568 56.3298L200.224 56.4926L200.117 56.6041L200.074 56.5634L196.952 58.0405C192.618 48.88 182.873 46.6116 173.754 49.9138C164.651 53.2099 156.74 61.9436 156.74 74.1001L152.74 74.1001L152.741 73.9723L152.624 74.0671C137.516 55.5147 112.597 52.4491 90.3057 59.8438C67.9854 67.2481 49.0466 84.9063 45.8504 106.83C44.4925 116.144 46.1502 128.381 50.5344 140.318C54.9143 152.243 61.9343 163.645 71.0811 171.388L68.666 174.241L68.6759 174.254C68.6552 174.27 68.6345 174.286 68.6138 174.303L68.4967 174.441C68.4875 174.433 68.4783 174.425 68.4691 174.418C26.8783 207.474 21.322 252.773 39.8622 287.384C58.424 322.035 101.352 346.337 157.545 336.699C157.55 336.649 157.556 336.599 157.562 336.548L161.537 336.989C159.872 351.99 162.257 363.173 167.37 371.023C172.462 378.841 180.422 383.61 190.455 385.492C210.352 389.225 238.12 381.514 265.822 363.884L268.081 362.103C292.364 392.902 325.651 400.545 353.647 390.44C381.678 380.322 404.767 352.271 408.201 310.905L408.17 310.889L409.957 307.311C436.195 320.411 461.281 315.807 477.347 301.985C493.357 288.21 500.617 265.118 491.008 240.524L490.715 240.375C515.085 192.581 505.199 153.848 480.906 131.446C456.491 108.93 417.163 102.535 381.876 120.267L380.08 116.693L380.251 116.607C381.616 70.8015 353.383 38.5442 316.399 26.2806Z" fill="#FFFCF8"/>
<path d="M200.506 56.2C233.788 21.7938 279.428 14.0213 316.399 26.2806C353.383 38.5442 381.616 70.8015 380.251 116.607L380.08 116.693L381.876 120.267C417.163 102.535 456.491 108.93 480.906 131.446C505.199 153.848 515.085 192.581 490.715 240.375L491.008 240.524C500.617 265.118 493.357 288.21 477.347 301.985C461.281 315.807 436.195 320.411 409.957 307.311L408.17 310.889L408.201 310.905C404.767 352.271 381.678 380.322 353.647 390.44C325.651 400.545 292.364 392.902 268.081 362.103L265.822 363.884C238.12 381.514 210.352 389.225 190.455 385.492C180.422 383.61 172.462 378.841 167.37 371.023C162.257 363.173 159.872 351.99 161.537 336.989L157.562 336.548L157.545 336.699C101.352 346.337 58.424 322.035 39.8622 287.384C21.322 252.773 26.8783 207.474 68.4691 174.418L68.4967 174.441L68.6138 174.303L68.6759 174.254L68.666 174.241L71.0811 171.388C61.9343 163.645 54.9143 152.243 50.5344 140.318C46.1502 128.381 44.4925 116.144 45.8504 106.83C49.0466 84.9063 67.9854 67.2481 90.3057 59.8438C112.597 52.4491 137.516 55.5147 152.624 74.0671L152.741 73.9723L152.74 74.1001L156.74 74.1001C156.74 61.9436 164.651 53.2099 173.754 49.9138C182.873 46.6116 192.618 48.88 196.952 58.0405L200.074 56.5634L200.117 56.6041L200.224 56.4926L200.568 56.3298L200.542 56.2762L200.506 56.2Z" fill="#FFFCF8"/>
<path d="M357.721 401.727C387.747 390.889 411.775 362.973 418.652 323.667C444.047 331.352 468.32 325.581 485.173 311.082C503.996 294.887 512.695 268.486 503.848 240.837C527.151 191.183 516.984 148.392 489.041 122.624C464.378 99.8798 427.169 91.7542 391.846 103.226C387.844 58.7128 357.761 27.3535 320.176 14.8905C281.426 2.04131 234.346 9.04156 198.386 41.5642C189.763 35.5255 178.682 35.3669 169.668 38.6307C161.801 41.4792 154.427 47.184 149.769 55.1786C131.075 42.1638 106.994 41.6649 86.5275 48.4541C61.387 56.7939 38.0261 77.3177 33.9759 105.098C32.2539 116.91 34.4052 131.21 39.2702 144.455C42.6771 153.731 47.6005 163.003 54.0196 170.955C14.3423 207.008 9.0522 255.281 29.2843 293.05C49.2779 330.374 93.2643 355.856 149.108 349.977C149.634 360.636 152.339 369.932 157.315 377.572C164.513 388.625 175.611 394.916 188.243 397.286C210.666 401.493 238.902 393.691 265.916 377.885C292.545 405.643 327.449 412.654 357.721 401.727Z" stroke="#091C1B" stroke-width="16"/>
<circle cx="108" cy="399" r="26" fill="#FFFCF8" stroke="#091C1B" stroke-width="12"/>
<circle cx="44" cy="417" r="13" fill="#FFFCF8" stroke="#091C1B" stroke-width="10"/>
<path d="M235.675 207.937C235.675 242.561 227.351 252.767 217.328 252.767C207.306 252.767 199.38 242.561 199.38 207.937C199.38 173.313 207.578 164.327 217.601 164.327C227.624 164.327 235.675 173.313 235.675 207.937Z" fill="#091C1B"/>
<path d="M337.729 207.785C337.729 242.409 329.405 252.615 319.383 252.615C309.36 252.615 301.435 242.409 301.435 207.785C301.435 173.161 309.633 164.175 319.655 164.175C329.678 164.175 337.729 173.161 337.729 207.785Z" fill="#091C1B"/>
<circle cx="332.435" cy="241.175" r="55" fill="white" fill-opacity="0.25" stroke="#091C1B" stroke-width="10"/>
<circle cx="345.435" cy="317.175" r="8" fill="#091C1B"/>
<circle cx="364.435" cy="337.175" r="8" fill="#091C1B"/>
<circle cx="388.435" cy="346.175" r="8" fill="#091C1B"/>
<circle cx="417.435" cy="336.175" r="8" fill="#091C1B"/>
</svg>
