<svg width="478" height="417" viewBox="0 0 478 417" fill="none" xmlns="http://www.w3.org/2000/svg">
<path d="M153.029 331.859L142.786 416.782H139.427L149.67 331.859H153.029Z" fill="#D2DCFF"/>
<path d="M107.762 331.858L106.61 341.409L97.519 416.781H94.159L103.296 341.036L104.402 331.858H107.762Z" fill="#D2DCFF"/>
<path d="M153.029 416.781H149.67L148.253 405.036L146.574 391.111L141.048 345.304L139.427 331.858H142.787L144.455 345.688L148.253 377.182L149.933 391.108L153.029 416.781Z" fill="#D2DCFF"/>
<path d="M198.296 416.781H194.936L186.986 350.866L184.693 331.858H188.053L190.39 351.233L198.296 416.781Z" fill="#D2DCFF"/>
<path d="M107.926 275.089H104.566V326.459H107.926V275.089Z" fill="#D2DCFF"/>
<path d="M153.577 275.089H150.218V326.459H153.577V275.089Z" fill="#D2DCFF"/>
<path d="M189.463 326.459H143.304C144.795 326.459 146.004 327.667 146.004 329.158C146.004 330.649 144.795 331.858 143.304 331.858H189.463C190.954 331.858 192.163 330.649 192.163 329.158C192.163 327.667 190.954 326.459 189.463 326.459Z" fill="#D2DCFF"/>
<path d="M146.004 329.158C146.004 327.667 144.795 326.459 143.304 326.459H107.997H103.449C101.958 326.459 100.749 327.667 100.749 329.158C100.749 330.649 101.958 331.858 103.449 331.858H107.997H143.304C144.795 331.858 146.004 330.649 146.004 329.158Z" fill="#86A2E2"/>
<path d="M156.323 236.43H101.822C99.744 236.43 98.059 238.115 98.059 240.192V271.326C98.059 273.404 99.744 275.089 101.822 275.089H156.323C158.401 275.089 160.086 273.404 160.086 271.326V240.192C160.085 238.114 158.401 236.43 156.323 236.43Z" fill="#D2DCFF"/>
<path d="M107.762 331.858L106.61 341.409C105.396 341.272 104.287 341.147 103.296 341.036L104.403 331.858H107.762Z" fill="#AEC3FF"/>
<path d="M142.787 331.858L144.455 345.688C143.314 345.56 142.178 345.431 141.049 345.304L139.427 331.858H142.787Z" fill="#AEC3FF"/>
<path d="M190.39 351.233C189.306 351.117 188.169 350.995 186.986 350.866H186.985L184.693 331.858H188.053L190.39 351.233Z" fill="#AEC3FF"/>
<path d="M104.566 275.089H107.926V282.184L104.566 281.812V275.089Z" fill="#AEC3FF"/>
<path d="M153.577 275.089V287.237L150.218 286.866V275.089H153.577Z" fill="#AEC3FF"/>
<path d="M171.811 189.181C158.721 191.363 142.411 186.491 140.366 183.389C135.627 190.611 133.219 190.385 133.219 190.385V195.801L132.149 194.731C131.819 193.984 131.295 193.244 130.511 193.244C126.201 193.244 125.9 205.232 133.154 205.925C133.297 206.395 133.445 206.834 133.596 207.231V226.419H149.958V218.872C151.058 219.174 152.112 219.347 153.08 219.347C159.531 219.347 170.524 209.861 171.77 194.73C171.844 191.875 171.811 189.181 171.811 189.181Z" fill="#FCBEB7"/>
<path d="M151.951 168.644C140.667 168.644 138.41 174.662 138.41 174.662C133.595 174.662 126.223 183.464 130.662 193.243L130.685 193.266L133.22 195.801V190.385C133.22 190.385 135.627 190.611 140.367 183.389C142.412 186.491 158.723 191.363 171.812 189.181C171.812 189.181 171.846 191.875 171.771 194.73C171.771 194.733 171.771 194.736 171.771 194.739C176.659 180.596 166.846 168.644 151.951 168.644Z" fill="#311643"/>
<path d="M147.099 198.861C146.6 198.861 146.196 198.457 146.196 197.958V196.272C146.196 195.773 146.6 195.369 147.099 195.369C147.598 195.369 148.002 195.773 148.002 196.272V197.958C148.001 198.457 147.597 198.861 147.099 198.861Z" fill="#311643"/>
<path d="M163.837 198.861C163.338 198.861 162.934 198.457 162.934 197.958V196.272C162.934 195.773 163.338 195.369 163.837 195.369C164.336 195.369 164.74 195.773 164.74 196.272V197.958C164.739 198.457 164.335 198.861 163.837 198.861Z" fill="#311643"/>
<path d="M153.736 209.398C152.125 209.398 151.028 208.792 150.363 208.24C149.525 207.544 149.177 206.785 149.162 206.753C149.068 206.545 149.161 206.3 149.369 206.206C149.577 206.112 149.821 206.205 149.915 206.412C149.962 206.514 151.106 208.914 154.431 208.529C154.658 208.503 154.863 208.665 154.889 208.893C154.915 209.12 154.753 209.325 154.526 209.351C154.251 209.384 153.987 209.398 153.736 209.398Z" fill="#311643"/>
<path d="M141.105 206.346C143.57 206.346 145.569 204.347 145.569 201.882C145.569 199.417 143.57 197.418 141.105 197.418C138.64 197.418 136.641 199.417 136.641 201.882C136.641 204.347 138.64 206.346 141.105 206.346Z" fill="#F49795"/>
<path d="M171.305 198.176C170.739 201.174 169.791 203.907 168.592 206.34C166.231 206.223 164.354 204.272 164.354 201.882C164.354 199.417 166.352 197.419 168.817 197.419C169.738 197.419 170.594 197.698 171.305 198.176Z" fill="#F49795"/>
<path d="M163.837 188.307C160.578 188.307 157.887 190.785 157.548 193.955C155.776 193.121 154.212 193.572 153.387 193.952C153.047 190.783 150.357 188.307 147.099 188.307C143.611 188.307 140.774 191.144 140.774 194.632C140.774 198.12 143.612 200.957 147.099 200.957C150.508 200.957 153.295 198.245 153.418 194.866C153.942 194.569 155.625 193.8 157.517 194.871C157.643 198.248 160.429 200.957 163.836 200.957C167.324 200.957 170.161 198.12 170.161 194.632C170.162 191.144 167.324 188.307 163.837 188.307ZM147.099 200.13C144.067 200.13 141.601 197.664 141.601 194.632C141.601 191.6 144.067 189.134 147.099 189.134C150.13 189.134 152.597 191.6 152.597 194.632C152.596 197.664 150.13 200.13 147.099 200.13ZM163.837 200.13C160.805 200.13 158.339 197.664 158.339 194.632C158.339 191.6 160.805 189.134 163.837 189.134C166.869 189.134 169.335 191.6 169.335 194.632C169.335 197.664 166.868 200.13 163.837 200.13Z" fill="white"/>
<path d="M149.957 226.419V218.872C146.257 217.855 142.045 215.364 138.879 212.989L149.957 226.419Z" fill="#F9AFAB"/>
<path d="M196.445 355.429L193.029 354.961L189.794 328.139H193.154L196.445 355.429Z" fill="#EBEDF4"/>
<path d="M187.372 252.93L190.339 258.618H174.525L187.372 252.93Z" fill="#FCBEB7"/>
<path d="M157.082 401.95V414.196C157.082 415.624 158.24 416.782 159.668 416.782H194.402C194.732 416.782 195 416.514 195 416.184V413.927C195 412.838 194.365 411.848 193.375 411.395L173.291 401.95H157.082V401.95Z" fill="#2F3D6C"/>
<path d="M157.082 394.983L157.09 401.95H173.29L174.411 394.983H157.082Z" fill="#FCBEB7"/>
<path d="M149.929 219.302L171.922 229.236C174.946 230.602 177.407 232.969 178.889 235.938L187.372 252.93L174.525 258.618L175.589 296.178H111.569L114.364 261.099L102.786 261.174V241.981C102.786 236.036 106.358 230.674 111.844 228.383L133.595 219.301C133.596 219.302 143.098 225.538 149.929 219.302Z" fill="#649B51"/>
<path d="M154.51 221.29C151.201 223.965 147.111 225.417 142.797 225.417C138.228 225.417 133.762 223.639 130.358 220.653L129.658 220.945C133.214 224.153 137.971 226.079 142.797 226.079C147.38 226.079 151.72 224.495 155.192 221.586L154.51 221.29Z" fill="white"/>
<path d="M191.168 401.95V414.196C191.168 415.624 192.326 416.782 193.754 416.782H228.488C228.818 416.782 229.086 416.514 229.086 416.184V413.927C229.086 412.838 228.451 411.848 227.461 411.395L207.377 401.95H191.168V401.95Z" fill="#2F3D6C"/>
<path d="M191.168 394.983L191.177 401.95H207.377L208.497 394.983H191.168Z" fill="#FCBEB7"/>
<path d="M145.653 296.178V296.833C145.64 313.284 158.973 326.627 175.425 326.627H189.255L191.169 394.982H208.498L221.275 313.48C222.7 304.391 215.673 296.178 206.474 296.178H145.653Z" fill="#90745A"/>
<path d="M221.458 311.196C219.966 313.379 217.455 314.812 214.61 314.812C210.029 314.812 206.316 311.099 206.316 306.518C206.316 302.119 209.741 298.52 214.069 298.242C218.538 300.876 221.482 305.755 221.458 311.196Z" fill="#5E4937"/>
<path d="M187.37 310.876L189.255 326.627H177.908L187.37 310.876Z" fill="#4A5EA3"/>
<path d="M111.567 296.178V296.833C111.554 313.284 124.887 326.627 141.339 326.627H155.169L157.083 394.982H174.412L187.189 313.48C188.614 304.391 181.587 296.178 172.388 296.178H111.567Z" fill="#91745A"/>
<path d="M102.787 261.174L103.403 282.447C103.57 288.196 108.278 292.771 114.03 292.771H151.061L153.547 284.11L120.883 278.726L120.652 261.058L102.787 261.174Z" fill="#FCBEB7"/>
<path d="M113.768 288.347C113.768 290.028 113.012 291.534 111.821 292.541C107.993 291.732 104.917 288.863 103.826 285.132C104.823 283.753 106.445 282.856 108.277 282.856C111.311 282.856 113.768 285.314 113.768 288.347Z" fill="#F9AFAB"/>
<path d="M120.652 261.059L125.667 279.515L120.883 278.727L120.652 261.059Z" fill="#3A642B"/>
<path d="M148.983 283.358L143.145 292.771H151.06L153.547 284.11L148.983 283.358Z" fill="#F9AFAB"/>
<path d="M212.616 258.618H164.33C162.278 258.618 160.474 259.977 159.908 261.949L151.06 292.771H131.48C130.539 292.771 129.776 293.534 129.776 294.475C129.776 295.416 130.539 296.179 131.48 296.179H150.082H155.997H207.941L217.038 264.489C217.883 261.548 215.675 258.618 212.616 258.618Z" fill="#4A5EA3"/>
<path d="M187.37 310.876C185.909 313.238 183.295 314.811 180.313 314.811C175.732 314.811 172.019 311.098 172.019 306.517C172.019 302.053 175.545 298.412 179.965 298.23C184.356 300.812 187.279 305.558 187.37 310.876Z" fill="#5E4937"/>
<path d="M188.069 278.825C188.195 277.386 187.498 276.149 186.512 276.062C185.526 275.975 184.625 277.072 184.498 278.511C184.372 279.95 185.068 281.187 186.054 281.274C187.04 281.361 187.942 280.264 188.069 278.825Z" fill="#89AEFF"/>
<path d="M112.5 236.195C112.5 238.877 110.325 241.052 107.643 241.052C105.708 241.052 104.039 239.921 103.258 238.285C103.944 235.634 105.357 233.233 107.319 231.35C107.426 231.342 107.534 231.339 107.643 231.339C110.325 231.338 112.5 233.513 112.5 236.195Z" fill="#3A642B"/>
<path d="M178.589 235.369C177.815 235.89 176.883 236.194 175.88 236.194C173.198 236.194 171.024 234.019 171.024 231.337C171.024 230.523 171.224 229.754 171.579 229.081L171.922 229.236C174.75 230.513 177.086 232.666 178.589 235.369Z" fill="#3A642B"/>
<path d="M284.942 122.107L284.777 150.991L299.5 151.075L313.043 151.152L313.978 151.157L332.317 151.261C332.317 151.261 332.443 129.081 332.517 116.189C332.596 102.32 321.449 99.845 321.449 99.845C321.449 99.845 317.428 93.3061 305.62 93.2391C291.412 93.1581 281.888 101.808 281.827 112.551C281.8 117.485 283.787 120.673 284.942 122.107ZM285.209 117.315C287.008 116.92 292.085 112.498 292.111 107.934C296.028 114.497 308.059 123.978 326.061 118.336V118.337C326.117 118.329 326.173 118.324 326.232 118.325C330.507 118.349 330.737 130.24 323.539 130.886C323.431 131.234 323.32 131.565 323.207 131.875L323.097 151.209L306.87 151.116L306.913 143.601C305.78 143.913 304.695 144.091 303.702 144.085C296.99 144.048 285.382 133.627 285.209 117.315Z" fill="#311643"/>
<path d="M306.907 144.637L306.913 143.602C305.78 143.914 304.695 144.092 303.702 144.086C296.99 144.048 285.382 133.627 285.209 117.315C287.008 116.92 292.085 112.498 292.111 107.934C296.028 114.497 308.059 123.978 326.061 118.336V118.337C326.117 118.329 326.173 118.324 326.232 118.325C330.507 118.349 330.737 130.24 323.539 130.886C323.431 131.234 323.32 131.565 323.207 131.875L323.133 144.881L335.808 150.944L335.719 166.63L293.487 166.389L293.577 150.555L306.907 144.637Z" fill="#FCBEB7"/>
<path d="M293.486 166.389L293.576 150.555L306.907 144.637L306.913 143.602C310.679 142.562 314.968 140.017 318.12 137.637L293.486 166.389Z" fill="#F9AFAB"/>
<path d="M315.675 131.26C318.12 131.26 320.102 129.278 320.102 126.833C320.102 124.388 318.12 122.406 315.675 122.406C313.23 122.406 311.248 124.388 311.248 126.833C311.248 129.278 313.23 131.26 315.675 131.26Z" fill="#F49795"/>
<path d="M285.746 122.987C286.29 125.963 287.215 128.679 288.39 131.099C290.732 130.997 292.605 129.072 292.618 126.702C292.632 124.257 290.662 122.264 288.217 122.25C287.305 122.244 286.454 122.516 285.746 122.987Z" fill="#F49795"/>
<path d="M286.981 119.479C286.961 122.938 289.759 125.768 293.218 125.788C296.597 125.807 299.375 123.136 299.52 119.788C301.415 118.728 303.066 119.501 303.585 119.804C303.688 123.157 306.436 125.863 309.818 125.882C313.277 125.902 316.107 123.104 316.127 119.645C316.147 116.186 313.349 113.356 309.89 113.336C306.659 113.318 303.977 115.758 303.622 118.899C302.805 118.518 301.257 118.062 299.495 118.879C299.177 115.733 296.522 113.26 293.29 113.242C289.831 113.222 287.001 116.02 286.981 119.479ZM304.401 119.578C304.418 116.572 306.878 114.14 309.885 114.157C312.891 114.174 315.323 116.634 315.306 119.64C315.289 122.646 312.829 125.078 309.822 125.061C306.815 125.044 304.384 122.584 304.401 119.578ZM287.802 119.483C287.819 116.476 290.279 114.045 293.286 114.062C296.293 114.079 298.724 116.539 298.707 119.545C298.69 122.552 296.23 124.983 293.224 124.966C290.216 124.95 287.784 122.49 287.802 119.483Z" fill="white"/>
<path d="M293.224 124.009C293.718 124.012 294.122 123.613 294.124 123.119L294.134 121.447C294.137 120.953 293.738 120.55 293.244 120.547C292.75 120.544 292.346 120.943 292.344 121.437L292.334 123.11C292.331 123.604 292.73 124.007 293.224 124.009Z" fill="#311643"/>
<path d="M309.556 124.103C310.05 124.106 310.453 123.707 310.456 123.213L310.466 121.54C310.469 121.046 310.07 120.643 309.576 120.64C309.082 120.637 308.679 121.036 308.676 121.53L308.666 123.202C308.663 123.697 309.061 124.1 309.556 124.103Z" fill="#311643"/>
<path d="M303.107 134.215C304.705 134.224 305.796 133.629 306.459 133.086C307.294 132.401 307.644 131.65 307.658 131.618C307.752 131.412 307.662 131.168 307.455 131.074C307.249 130.98 307.007 131.07 306.912 131.275C306.865 131.376 305.716 133.749 302.422 133.349C302.197 133.322 301.993 133.482 301.965 133.707C301.938 133.932 302.098 134.136 302.323 134.164C302.597 134.198 302.858 134.214 303.107 134.215Z" fill="#311643"/>
<path d="M274.785 394.474L273.067 401.443L254.723 407.089L257.429 394.375L274.785 394.474Z" fill="#FCBEB7"/>
<path d="M336.479 394.826L335.93 403.443L337.068 403.87L337.8 407.566L319.539 401.708L319.122 394.727L336.479 394.826Z" fill="#FCBEB7"/>
<path d="M240.585 409.719L255.507 403.405L254.723 407.089L273.067 401.443L273.037 406.69C273.027 408.535 272.052 410.202 270.53 411.133L268.93 415.626C268.792 416.014 268.423 416.273 268.011 416.27C267.475 416.267 267.044 415.83 267.047 415.295L267.064 412.367L254.527 416.194L241.867 416.122C240.026 416.112 238.542 414.611 238.553 412.77C238.558 411.437 239.358 410.238 240.585 409.719Z" fill="#2F3D6C"/>
<path d="M319.493 406.904L319.538 401.657L337.799 407.566L337.068 403.871L351.898 410.399C353.117 410.936 353.9 412.147 353.888 413.478C353.872 415.319 352.367 416.798 350.526 416.782L337.866 416.673L324.948 412.526L324.921 415.592C324.916 416.128 324.478 416.558 323.943 416.553C323.531 416.55 323.166 416.286 323.033 415.895L321.353 410.956C320.188 409.97 319.479 408.499 319.493 406.904Z" fill="#2F3D6C"/>
<path d="M334.71 219.293L341.301 247.932C343.204 256.203 343.924 264.701 343.44 273.174L336.479 394.826L319.122 394.727L312.431 268.396L274.785 394.474L257.428 394.375L288.989 219.033L334.71 219.293Z" fill="#F3F5FF"/>
<path d="M312.089 158.759C309.007 158.741 306.559 155.76 304.914 152.744L322.489 152.844C319.792 155.826 316.104 158.781 312.089 158.759Z" fill="white"/>
<path d="M281.785 160.979C283.99 156.632 287.631 153.181 292.089 151.212L302.545 146.593C302.542 147.083 303.378 149.928 304.914 152.744C306.559 155.76 309.007 158.741 312.089 158.759C316.104 158.782 319.792 155.827 322.489 152.844C325.226 149.817 326.943 146.763 326.943 146.763L339.012 152.439C343.952 154.762 347.573 159.198 348.861 164.503L355.771 192.985C356.898 197.629 355.542 202.526 352.186 205.929C346.628 203.943 336.195 199.814 336.195 199.814L334.71 219.294L288.989 219.034L277.918 168.602L281.785 160.979Z" fill="#F184B8"/>
<path d="M311.613 163.032C314.155 163.046 316.746 162.288 319.314 160.777C321.353 159.578 323.382 157.904 325.346 155.802C328.68 152.234 330.718 148.585 330.738 148.548L330.06 148.229C330.04 148.265 328.063 151.802 324.789 155.304C322.875 157.351 320.903 158.977 318.927 160.138C316.479 161.577 314.019 162.299 311.616 162.286C309.348 162.273 307.309 161.505 305.557 160.002C304.139 158.786 302.899 157.088 301.872 154.955C300.107 151.29 299.638 147.916 299.633 147.879L298.929 148.19C298.95 148.346 299.381 151.493 301.192 155.263C302.264 157.493 303.567 159.276 305.064 160.562C306.957 162.187 309.16 163.018 311.613 163.032Z" fill="white"/>
<path d="M283.542 316.113C288.13 316.113 291.85 312.393 291.85 307.805C291.85 303.217 288.13 299.497 283.542 299.497C278.954 299.497 275.234 303.217 275.234 307.805C275.234 312.393 278.954 316.113 283.542 316.113Z" fill="#F1DBCE"/>
<path d="M327.069 316.361C331.657 316.361 335.377 312.641 335.377 308.053C335.377 303.465 331.657 299.745 327.069 299.745C322.481 299.745 318.761 303.465 318.761 308.053C318.761 312.641 322.481 316.361 327.069 316.361Z" fill="#F1DBCE"/>
<path d="M338.919 156.131C338.902 159.061 341.264 161.451 344.195 161.468C345.372 161.475 346.461 161.098 347.345 160.454C345.709 157.299 343.163 154.674 340.005 152.944C339.329 153.829 338.926 154.933 338.919 156.131Z" fill="#FF78BA"/>
<path d="M307.473 225.721L272.297 224.192C270.449 224.112 268.856 222.865 268.335 221.09L253.245 169.724C252.924 168.633 253.772 167.55 254.908 167.6L290.481 169.147C292.091 169.217 293.479 170.303 293.933 171.85L309.135 223.598C309.456 224.688 308.609 225.771 307.473 225.721Z" fill="#4A5EA3"/>
<path d="M269.71 198.572L263.519 204.696L262.489 201.19L269.71 198.572Z" fill="#2F3D6C"/>
<path d="M261.217 188.989L270.083 189.625C270.738 189.672 271.242 190.222 271.231 190.878L272.112 190.938C272.685 190.977 273.148 191.42 273.213 191.991L273.317 192.914H273.321C273.977 192.926 274.499 193.468 274.488 194.124C274.479 194.605 274.181 195.034 273.732 195.21L271.742 195.988C271.74 197 271.148 197.917 270.227 198.337L264.038 201.155C263.139 201.565 262.142 201.711 261.163 201.579C258.963 201.281 257.19 199.627 256.738 197.454L256.365 195.656C255.963 193.719 256.574 191.71 257.987 190.326C258.851 189.478 260.009 188.999 261.217 188.989Z" fill="#FCBEB7"/>
<path d="M305.501 155.029L299.363 169.79C299.017 170.623 298.513 171.376 297.894 171.986L296.811 173.053C296.56 173.301 296.211 173.156 296.21 172.803L296.203 171.283C296.199 170.414 296.378 169.526 296.724 168.693L302.862 153.932C303.236 153.034 304.129 152.551 304.858 152.854C305.586 153.157 305.874 154.131 305.501 155.029Z" fill="#6277D7"/>
<path d="M297.492 163.798L300.841 159.24C301.273 158.652 301.937 158.28 302.664 158.218L308.24 157.745C308.999 157.681 309.752 157.929 310.324 158.432L313.213 160.972C313.63 161.339 313.984 161.772 314.259 162.253L317.789 167.926L351.404 195.403C354.72 198.114 354.987 203.089 351.979 206.139C348.988 209.172 344.042 208.995 341.275 205.757L312.945 172.609L306.968 168.887L302.54 169.014C301.511 169.044 300.608 168.333 300.396 167.326L300.154 167.036C299.738 166.537 299.572 165.875 299.705 165.238L299.965 163.99L298.529 164.906C298.319 165.04 298.058 165.064 297.827 164.972C297.359 164.784 297.193 164.205 297.492 163.798Z" fill="#FCBEB7"/>
<path d="M336.195 199.813L323.782 185.288L335.682 206.548L336.195 199.813Z" fill="#FF78BA"/>
<path d="M307.473 225.721L286.783 231.293L287.938 224.872L307.473 225.721Z" fill="#2F3D6C"/>
<path d="M283.647 157.966C284.299 158.242 285.014 158.396 285.766 158.4C288.814 158.417 291.299 155.961 291.316 152.913C291.319 152.476 291.27 152.05 291.177 151.642C288.194 153.133 285.617 155.304 283.647 157.966Z" fill="#FF78BA"/>
<path d="M346.639 207.19C349.474 207.19 351.772 204.892 351.772 202.057C351.772 199.222 349.474 196.924 346.639 196.924C343.804 196.924 341.506 199.222 341.506 202.057C341.506 204.892 343.804 207.19 346.639 207.19Z" fill="#F9AFAB"/>
<path d="M410.231 222.982H404.773V411.323H410.231V222.982Z" fill="#D2DCFF"/>
<path d="M447.395 416.782H367.609C366.144 416.782 364.957 415.594 364.957 414.13V413.976C364.957 412.511 366.144 411.324 367.609 411.324H447.395C448.86 411.324 450.047 412.512 450.047 413.976V414.13C450.047 415.594 448.859 416.782 447.395 416.782Z" fill="#D2DCFF"/>
<path d="M458.843 222.982H356.161L373.928 166.459H441.076L458.843 222.982Z" fill="#D2DCFF"/>
<path d="M410.231 222.982V255.66C408.387 256.286 406.559 256.908 404.773 257.515V222.981H410.231V222.982Z" fill="#AEC3FF"/>
<path d="M362.455 202.959L452.563 203.002L453.867 207.154H361.136L362.455 202.959Z" fill="#AEC3FF"/>
<path d="M471.126 400.778V397.128C471.126 395.999 470.211 395.085 469.082 395.085H384.391C380.118 395.085 376.654 398.549 376.654 402.822V409.045C376.654 413.318 380.118 416.782 384.391 416.782H469.082C470.211 416.782 471.126 415.867 471.126 414.739V411.089C471.126 409.96 470.211 409.046 469.082 409.046H387.503C385.784 409.046 384.391 407.653 384.391 405.934C384.391 404.215 385.784 402.822 387.503 402.822H469.082C470.211 402.822 471.126 401.907 471.126 400.778Z" fill="#86A2E2"/>
<path d="M470.304 335.686V332.036C470.304 330.907 469.389 329.992 468.26 329.992H383.569C379.296 329.992 375.832 333.456 375.832 337.729V343.952C375.832 348.225 379.296 351.689 383.569 351.689H468.26C469.389 351.689 470.304 350.774 470.304 349.646V345.996C470.304 344.867 469.389 343.953 468.26 343.953H386.681C384.962 343.953 383.569 342.56 383.569 340.841C383.569 339.122 384.962 337.729 386.681 337.729H468.26C469.389 337.729 470.304 336.815 470.304 335.686Z" fill="#D2DCFF"/>
<path d="M465.075 379.081V375.431C465.075 374.303 464.16 373.388 463.031 373.388H390.442C386.169 373.388 382.705 376.852 382.705 381.125V387.348C382.705 391.621 386.169 395.085 390.442 395.085H463.031C464.16 395.085 465.075 394.17 465.075 393.041V389.391C465.075 388.262 464.16 387.348 463.031 387.348H393.554C391.835 387.348 390.442 385.955 390.442 384.236C390.442 382.517 391.835 381.124 393.554 381.124H463.031C464.16 381.124 465.075 380.209 465.075 379.081Z" fill="#AEC3FF"/>
<path d="M477.267 314.578V310.928C477.267 309.799 476.352 308.885 475.224 308.885H402.635C398.362 308.885 394.898 312.349 394.898 316.622V322.845C394.898 327.118 398.362 330.582 402.635 330.582H475.224C476.353 330.582 477.267 329.667 477.267 328.539V324.889C477.267 323.76 476.352 322.845 475.224 322.845H405.747C404.028 322.845 402.635 321.452 402.635 319.733C402.635 318.014 404.028 316.621 405.747 316.621H475.224C476.352 316.622 477.267 315.707 477.267 314.578Z" fill="#AEC3FF"/>
<path d="M462.384 381.124V387.347H393.554C391.835 387.347 390.442 385.954 390.442 384.235C390.442 382.516 391.835 381.123 393.554 381.123H462.384V381.124Z" fill="#EFF1FA"/>
<path d="M456.305 402.822V409.045H387.475C385.756 409.045 384.363 407.652 384.363 405.933C384.363 404.214 385.756 402.821 387.475 402.821H456.305V402.822Z" fill="#EFF1FA"/>
<path d="M455.483 337.729V343.952H386.653C384.934 343.952 383.541 342.559 383.541 340.84C383.541 339.121 384.934 337.728 386.653 337.728H455.483V337.729Z" fill="#EFF1FA"/>
<path d="M474.576 316.622V322.845H405.746C404.027 322.845 402.634 321.452 402.634 319.733C402.634 318.014 404.027 316.621 405.746 316.621H474.576V316.622Z" fill="#EFF1FA"/>
<path d="M477.267 357.383V353.733C477.267 352.604 476.352 351.69 475.224 351.69H402.635C398.362 351.69 394.898 355.154 394.898 359.427V365.65C394.898 369.923 398.362 373.387 402.635 373.387H475.224C476.353 373.387 477.267 372.472 477.267 371.344V367.694C477.267 366.566 476.352 365.651 475.224 365.651H405.747C404.028 365.651 402.635 364.258 402.635 362.539C402.635 360.82 404.028 359.427 405.747 359.427H475.224C476.352 359.427 477.267 358.512 477.267 357.383Z" fill="#86A2E2"/>
<path d="M474.576 359.427V365.65H405.746C404.027 365.65 402.634 364.257 402.634 362.538C402.634 360.819 404.027 359.426 405.746 359.426H474.576V359.427Z" fill="#EFF1FA"/>
<path d="M438.556 298.021H451.026C451.641 298.021 452.118 298.558 452.045 299.169L450.99 307.981C450.928 308.497 450.491 308.885 449.971 308.885H439.611C439.092 308.885 438.654 308.497 438.592 307.981L437.537 299.169C437.464 298.559 437.941 298.021 438.556 298.021Z" fill="#D2DCFF"/>
<path d="M449.072 294.426V290.419L446.674 294.973V287.576L444.791 292.234L442.907 287.576V294.973L440.51 290.419V294.426L437.017 288.809L438.556 298.021H444.791H451.026L452.565 288.809L449.072 294.426Z" fill="#FE9ECC"/>
<path d="M248.857 103.453V144.656C248.857 146.11 247.678 147.289 246.224 147.289H196.692C195.237 147.289 194.059 146.11 194.059 144.656V103.453C194.059 101.998 195.237 100.82 196.692 100.82H246.224C247.677 100.82 248.857 101.999 248.857 103.453Z" fill="#FFD9E8"/>
<path d="M248.857 103.453V111.22H194.059V103.453C194.059 101.998 195.237 100.82 196.692 100.82H246.224C247.678 100.82 248.857 101.999 248.857 103.453Z" fill="#FE9ECC"/>
<path d="M208.909 104.118C208.158 104.118 207.55 103.51 207.55 102.759V98.8821C207.55 98.1311 208.159 97.5229 208.909 97.5229C209.66 97.5229 210.268 98.1311 210.268 98.8821V102.759C210.268 103.51 209.66 104.118 208.909 104.118Z" fill="#FE9ECC"/>
<path d="M234.006 104.118C233.255 104.118 232.647 103.51 232.647 102.759V98.8821C232.647 98.1311 233.256 97.5229 234.006 97.5229C234.757 97.5229 235.365 98.1311 235.365 98.8821V102.759C235.365 103.51 234.757 104.118 234.006 104.118Z" fill="#FE9ECC"/>
<path d="M209.707 130.41L215.556 125.156C215.854 124.887 216.152 124.582 216.449 124.241C216.747 123.901 216.896 123.504 216.896 123.05C216.896 122.54 216.711 122.139 216.343 121.848C215.974 121.557 215.542 121.412 215.046 121.412C214.45 121.412 213.986 121.596 213.653 121.965C213.32 122.334 213.132 122.788 213.089 123.326L209.899 123.092C209.942 122.312 210.104 121.635 210.388 121.061C210.672 120.487 211.047 120.008 211.515 119.625C211.983 119.242 212.532 118.955 213.163 118.763C213.794 118.572 214.478 118.476 215.215 118.476C215.896 118.476 216.534 118.572 217.129 118.763C217.725 118.955 218.242 119.238 218.682 119.614C219.121 119.99 219.465 120.461 219.714 121.029C219.962 121.596 220.086 122.256 220.086 123.007C220.086 123.489 220.036 123.925 219.937 124.315C219.838 124.705 219.699 125.059 219.522 125.378C219.345 125.697 219.135 125.992 218.895 126.261C218.654 126.53 218.391 126.792 218.108 127.048L213.535 130.983H220.213V133.79H209.706V130.41H209.707Z" fill="#FE9ECC"/>
<path d="M227.743 128.411C227.573 128.454 227.403 128.489 227.233 128.517C227.063 128.546 226.885 128.559 226.701 128.559C225.992 128.559 225.347 128.432 224.766 128.176C224.184 127.921 223.688 127.573 223.277 127.134C222.866 126.695 222.547 126.174 222.32 125.571C222.093 124.968 221.98 124.327 221.98 123.646C221.98 122.866 222.125 122.161 222.416 121.53C222.706 120.899 223.104 120.357 223.607 119.903C224.11 119.449 224.702 119.099 225.383 118.85C226.064 118.602 226.801 118.478 227.595 118.478C228.375 118.478 229.108 118.602 229.796 118.85C230.484 119.098 231.079 119.449 231.583 119.903C232.086 120.357 232.483 120.899 232.774 121.53C233.064 122.161 233.21 122.867 233.21 123.646C233.21 124.185 233.16 124.677 233.061 125.124C232.962 125.571 232.83 125.993 232.668 126.389C232.505 126.786 232.313 127.165 232.094 127.527C231.874 127.889 231.644 128.261 231.403 128.644L228.106 133.791H224.214L227.743 128.411ZM225.169 123.774C225.169 124.455 225.392 125.018 225.839 125.465C226.286 125.912 226.871 126.135 227.594 126.135C228.317 126.135 228.902 125.912 229.349 125.465C229.796 125.018 230.019 124.455 230.019 123.774C230.019 123.093 229.796 122.53 229.349 122.083C228.902 121.636 228.317 121.413 227.594 121.413C226.871 121.413 226.286 121.636 225.839 122.083C225.393 122.53 225.169 123.094 225.169 123.774Z" fill="#FE9ECC"/>
<path d="M227.753 141.706H215.163C214.857 141.706 214.609 141.458 214.609 141.152C214.609 140.846 214.857 140.598 215.163 140.598H227.753C228.059 140.598 228.307 140.846 228.307 141.152C228.307 141.458 228.059 141.706 227.753 141.706Z" fill="#FE9ECC"/>
<path d="M73.292 369.522H26.033V416.781H73.292V369.522Z" fill="#D2DCFF"/>
<path d="M26.033 369.522H0V416.781H26.033V369.522Z" fill="#AEC3FF"/>
<path d="M26.033 377.603H0V378.987H26.033V377.603Z" fill="#86A2E2"/>
<path d="M73.292 377.603H26.033V378.987H73.292V377.603Z" fill="#AEC3FF"/>
<path d="M58.358 385.753H40.968C40.638 385.753 40.37 385.485 40.37 385.155V385.12C40.37 384.79 40.638 384.522 40.968 384.522H58.358C58.688 384.522 58.956 384.79 58.956 385.12V385.155C58.956 385.486 58.688 385.753 58.358 385.753Z" fill="#86A2E2"/>
<path d="M107.824 368.055L83.6769 356.339L73.5247 377.265L97.6718 388.98L107.824 368.055Z" fill="#4A5EA3"/>
<path d="M82.5098 359.277L55.8828 362.635L58.7924 385.709L85.4194 382.352L82.5098 359.277Z" fill="#4A5EA3"/>
<path d="M116.438 369.522H69.179V416.781H116.438V369.522Z" fill="#D2DCFF"/>
<path d="M69.179 369.522H43.146V416.781H69.179V369.522Z" fill="#AEC3FF"/>
<path d="M43.146 369.522L29.623 384.008H58.995L69.179 369.522H43.146Z" fill="#86A2E2"/>
<path d="M116.438 369.522L126.09 384.195H78.9L69.179 369.453L116.438 369.522Z" fill="#AEC3FF"/>
<path d="M79.205 359.897L77.304 369.468L82.44 359.489L79.205 359.897Z" fill="#2F3D6C"/>
<path d="M317.319 59.7H110.654C107.851 59.7 105.579 57.428 105.579 54.625V5.07495C105.579 2.27195 107.851 0 110.654 0H317.32C320.123 0 322.395 2.27195 322.395 5.07495V54.625C322.394 57.428 320.122 59.7 317.319 59.7Z" fill="#FC8A38"/>
<path d="M250.804 33.502H129.348C127.908 33.502 126.74 32.335 126.74 30.894V28.8071C126.74 27.3671 127.908 26.199 129.348 26.199H250.804C252.244 26.199 253.412 27.3661 253.412 28.8071V30.894C253.412 32.334 252.245 33.502 250.804 33.502Z" fill="#FFE3C9"/>
<path d="M395.7 59.7H346.15C343.347 59.7 341.075 57.428 341.075 54.625V5.07495C341.075 2.27195 343.347 0 346.15 0H395.7C398.503 0 400.775 2.27195 400.775 5.07495V54.625C400.775 57.428 398.502 59.7 395.7 59.7Z" fill="#FC8A38"/>
<path d="M386.04 46.3181C385.556 46.3181 385.073 46.1329 384.704 45.7639L378.418 39.478C372.595 44.481 363.776 44.2299 358.259 38.7099C352.474 32.9259 352.474 23.5121 358.259 17.7241C364.045 11.9361 373.459 11.9361 379.245 17.7241C384.391 22.8711 384.959 30.8869 380.953 36.6669L387.377 43.092C388.115 43.83 388.115 45.0259 387.377 45.7639C387.007 46.1329 386.523 46.3181 386.04 46.3181ZM368.751 19.537C366.527 19.537 364.303 20.3829 362.609 22.0759C359.223 25.4629 359.223 30.9741 362.609 34.3591C364.25 36.0001 366.43 36.903 368.751 36.903C371.071 36.903 373.252 36.0001 374.893 34.3591C374.955 34.2971 375.015 34.2341 375.075 34.1721C375.134 34.0761 375.204 33.988 375.287 33.905C375.327 33.866 375.368 33.8279 375.411 33.7949C378.269 30.3859 378.097 25.2799 374.894 22.0749C373.199 20.3829 370.975 19.537 368.751 19.537Z" fill="#FFE3C9"/>
</svg>
