<svg width="1208" height="596" viewBox="0 0 1208 596" fill="none" xmlns="http://www.w3.org/2000/svg">
<g clip-path="url(#clip0_1295_237)">
<rect width="1208" height="596" rx="30" fill="#CFE9C2"/>
<mask id="path-3-inside-1_1295_237" fill="white">
<path fill-rule="evenodd" clip-rule="evenodd" d="M34.8134 605.962C33.9327 619.79 36.4166 630.774 41.6709 638.962C47.4864 648.025 56.5278 653.4 67.4703 655.483C88.7347 659.53 117.435 651.23 145.478 633.251C170.639 663.361 204.542 670.914 233.41 660.338C262.853 649.55 286.703 620.042 290.693 577.306C316.995 589.006 342.244 583.971 358.861 569.462C375.957 554.535 383.713 529.739 374.184 503.554C398.14 454.358 388.149 413.577 362.553 389.623C337.734 366.396 298.574 359.339 262.835 375.56C263.379 327.965 233.992 294.418 195.946 281.618C157.717 268.756 110.673 276.791 76.1997 312.358C70.045 303.843 59.3598 302.343 50.1045 305.745C41.0114 309.087 32.8665 317.247 30.85 328.691C14.1618 310.706 -11.3393 308.347 -33.5709 315.832C-56.925 323.696 -77.4189 342.663 -80.9153 366.988C-82.4013 377.326 -80.5729 390.494 -76.0116 403.1C-71.9276 414.386 -65.5876 425.403 -57.2464 433.657C-100.012 468.493 -105.988 516.549 -86.5085 553.458C-67.1007 590.23 -22.637 615.571 34.8134 605.962ZM194.682 285.486C157.566 272.999 111.745 280.921 78.3289 315.979L78.3655 316.056L78.391 316.111L78.0456 316.277L77.9381 316.391L77.8954 316.349L74.7609 317.854C70.4105 308.521 60.6273 306.211 51.4714 309.576C42.3323 312.935 34.3901 321.834 34.3891 334.22L30.3733 334.22L30.3735 334.09L30.2567 334.187C15.0905 315.286 -9.92677 312.165 -32.3068 319.7C-54.7159 327.246 -73.731 345.239 -76.9416 367.575C-78.3056 377.065 -76.6424 389.533 -72.2419 401.695C-67.8457 413.844 -60.7989 425.46 -51.6166 433.348L-54.0415 436.255L-54.0316 436.268C-54.0524 436.285 -54.0732 436.301 -54.0939 436.318L-54.2115 436.459C-54.2207 436.451 -54.23 436.443 -54.2392 436.435C-95.997 470.118 -101.579 516.271 -82.9684 551.533C-64.3362 586.835 -21.2404 611.591 35.1748 601.768C35.1804 601.717 35.186 601.665 35.1916 601.614L39.1828 602.063C37.5097 617.347 39.9037 628.74 45.0362 636.738C50.1469 644.702 58.1387 649.56 68.2111 651.477C88.186 655.279 116.065 647.42 143.878 629.455L146.146 627.641C170.521 659.019 203.94 666.803 232.047 656.504C260.189 646.194 283.372 617.612 286.823 575.466L286.792 575.451L288.586 571.804C314.927 585.15 340.113 580.456 356.242 566.373C372.317 552.337 379.607 528.809 369.963 503.752L369.668 503.6C394.139 454.903 384.217 415.441 359.83 392.619C335.32 369.682 295.838 363.169 260.41 381.238L258.607 377.597L258.778 377.51C260.152 330.84 231.811 297.978 194.682 285.486Z"/>
<path d="M78.3289 315.979C111.745 280.921 157.566 272.999 194.682 285.486C231.811 297.978 260.152 330.84 258.778 377.51L258.607 377.597L260.41 381.238C295.838 363.169 335.32 369.682 359.83 392.619C384.217 415.441 394.139 454.903 369.668 503.6L369.963 503.752C379.607 528.809 372.317 552.337 356.242 566.373C340.113 580.456 314.927 585.15 288.586 571.804L286.792 575.451L286.823 575.466C283.372 617.612 260.189 646.194 232.047 656.504C203.94 666.803 170.521 659.019 146.146 627.641L143.878 629.455C116.065 647.42 88.186 655.279 68.2111 651.477C58.1387 649.56 50.1469 644.702 45.0362 636.738C39.9037 628.74 37.5097 617.347 39.1828 602.063L35.1916 601.614L35.1748 601.768C-21.2404 611.591 -64.3362 586.835 -82.9684 551.533C-101.579 516.271 -95.997 470.118 -54.2392 436.435L-54.2115 436.459L-54.0939 436.318L-54.0316 436.268L-54.0415 436.255L-51.6166 433.348C-60.7989 425.46 -67.8457 413.844 -72.2419 401.695C-76.6424 389.533 -78.3056 377.065 -76.9416 367.575C-73.731 345.239 -54.7159 327.246 -32.3068 319.7C-9.92677 312.165 15.0905 315.286 30.2567 334.187L30.3735 334.09L30.3733 334.22L34.3891 334.22C34.3901 321.834 42.3323 312.935 51.4714 309.576C60.6273 306.211 70.4105 308.521 74.7609 317.854L77.8954 316.349L77.9381 316.391L78.0456 316.277L78.391 316.111L78.3655 316.056L78.3289 315.979Z"/>
</mask>
<path fill-rule="evenodd" clip-rule="evenodd" d="M34.8134 605.962C33.9327 619.79 36.4166 630.774 41.6709 638.962C47.4864 648.025 56.5278 653.4 67.4703 655.483C88.7347 659.53 117.435 651.23 145.478 633.251C170.639 663.361 204.542 670.914 233.41 660.338C262.853 649.55 286.703 620.042 290.693 577.306C316.995 589.006 342.244 583.971 358.861 569.462C375.957 554.535 383.713 529.739 374.184 503.554C398.14 454.358 388.149 413.577 362.553 389.623C337.734 366.396 298.574 359.339 262.835 375.56C263.379 327.965 233.992 294.418 195.946 281.618C157.717 268.756 110.673 276.791 76.1997 312.358C70.045 303.843 59.3598 302.343 50.1045 305.745C41.0114 309.087 32.8665 317.247 30.85 328.691C14.1618 310.706 -11.3393 308.347 -33.5709 315.832C-56.925 323.696 -77.4189 342.663 -80.9153 366.988C-82.4013 377.326 -80.5729 390.494 -76.0116 403.1C-71.9276 414.386 -65.5876 425.403 -57.2464 433.657C-100.012 468.493 -105.988 516.549 -86.5085 553.458C-67.1007 590.23 -22.637 615.571 34.8134 605.962ZM194.682 285.486C157.566 272.999 111.745 280.921 78.3289 315.979L78.3655 316.056L78.391 316.111L78.0456 316.277L77.9381 316.391L77.8954 316.349L74.7609 317.854C70.4105 308.521 60.6273 306.211 51.4714 309.576C42.3323 312.935 34.3901 321.834 34.3891 334.22L30.3733 334.22L30.3735 334.09L30.2567 334.187C15.0905 315.286 -9.92677 312.165 -32.3068 319.7C-54.7159 327.246 -73.731 345.239 -76.9416 367.575C-78.3056 377.065 -76.6424 389.533 -72.2419 401.695C-67.8457 413.844 -60.7989 425.46 -51.6166 433.348L-54.0415 436.255L-54.0316 436.268C-54.0524 436.285 -54.0732 436.301 -54.0939 436.318L-54.2115 436.459C-54.2207 436.451 -54.23 436.443 -54.2392 436.435C-95.997 470.118 -101.579 516.271 -82.9684 551.533C-64.3362 586.835 -21.2404 611.591 35.1748 601.768C35.1804 601.717 35.186 601.665 35.1916 601.614L39.1828 602.063C37.5097 617.347 39.9037 628.74 45.0362 636.738C50.1469 644.702 58.1387 649.56 68.2111 651.477C88.186 655.279 116.065 647.42 143.878 629.455L146.146 627.641C170.521 659.019 203.94 666.803 232.047 656.504C260.189 646.194 283.372 617.612 286.823 575.466L286.792 575.451L288.586 571.804C314.927 585.15 340.113 580.456 356.242 566.373C372.317 552.337 379.607 528.809 369.963 503.752L369.668 503.6C394.139 454.903 384.217 415.441 359.83 392.619C335.32 369.682 295.838 363.169 260.41 381.238L258.607 377.597L258.778 377.51C260.152 330.84 231.811 297.978 194.682 285.486Z" fill="#FFFCF8"/>
<path d="M78.3289 315.979C111.745 280.921 157.566 272.999 194.682 285.486C231.811 297.978 260.152 330.84 258.778 377.51L258.607 377.597L260.41 381.238C295.838 363.169 335.32 369.682 359.83 392.619C384.217 415.441 394.139 454.903 369.668 503.6L369.963 503.752C379.607 528.809 372.317 552.337 356.242 566.373C340.113 580.456 314.927 585.15 288.586 571.804L286.792 575.451L286.823 575.466C283.372 617.612 260.189 646.194 232.047 656.504C203.94 666.803 170.521 659.019 146.146 627.641L143.878 629.455C116.065 647.42 88.186 655.279 68.2111 651.477C58.1387 649.56 50.1469 644.702 45.0362 636.738C39.9037 628.74 37.5097 617.347 39.1828 602.063L35.1916 601.614L35.1748 601.768C-21.2404 611.591 -64.3362 586.835 -82.9684 551.533C-101.579 516.271 -95.997 470.118 -54.2392 436.435L-54.2115 436.459L-54.0939 436.318L-54.0316 436.268L-54.0415 436.255L-51.6166 433.348C-60.7989 425.46 -67.8457 413.844 -72.2419 401.695C-76.6424 389.533 -78.3056 377.065 -76.9416 367.575C-73.731 345.239 -54.7159 327.246 -32.3068 319.7C-9.92677 312.165 15.0905 315.286 30.2567 334.187L30.3735 334.09L30.3733 334.22L34.3891 334.22C34.3901 321.834 42.3323 312.935 51.4714 309.576C60.6273 306.211 70.4105 308.521 74.7609 317.854L77.8954 316.349L77.9381 316.391L78.0456 316.277L78.391 316.111L78.3655 316.056L78.3289 315.979Z" fill="#FFFCF8"/>
<path d="M78.3289 315.979L5.94932 246.989L-41.3498 296.612L-12.1327 358.616L78.3289 315.979ZM194.682 285.486L162.78 380.266L162.78 380.266L194.682 285.486ZM78.3655 316.056L168.955 273.692L168.891 273.555L168.827 273.419L78.3655 316.056ZM78.391 316.111L121.667 406.255L210.898 363.405L168.981 273.747L78.391 316.111ZM78.0456 316.277L34.7692 226.133L18.1058 234.135L5.40283 247.565L78.0456 316.277ZM77.9381 316.391L8.19767 388.07L80.8819 458.787L150.581 385.103L77.9381 316.391ZM77.8954 316.349L147.636 244.67L97.582 195.97L34.6192 226.205L77.8954 316.349ZM74.7609 317.854L-15.877 360.116L26.8536 451.785L118.037 407.998L74.7609 317.854ZM51.4714 309.576L16.9874 215.716L16.9874 215.716L51.4714 309.576ZM34.3891 334.22L34.3808 434.22L134.381 434.212L134.389 334.212L34.3891 334.22ZM30.3733 334.22L-69.6265 334.028L-69.8351 434.228L30.365 434.22L30.3733 334.22ZM30.3735 334.09L130.373 334.282L130.817 121.37L-33.3203 257.009L30.3735 334.09ZM30.2567 334.187L-47.7423 396.779L15.7429 475.896L93.9505 411.268L30.2567 334.187ZM-32.3068 319.7L-0.409079 414.471L-0.409062 414.471L-32.3068 319.7ZM-76.9416 367.575L22.0411 381.787L22.0411 381.787L-76.9416 367.575ZM-72.2419 401.695L-166.276 435.734L-166.276 435.734L-72.2419 401.695ZM-51.6166 433.348L25.1708 497.396L88.3071 421.705L13.5519 357.489L-51.6166 433.348ZM-54.0415 436.255L-130.829 372.208L-182.484 434.135L-132.922 497.733L-54.0415 436.255ZM-82.9684 551.533L5.47138 504.845L5.47136 504.845L-82.9684 551.533ZM39.1828 602.063L138.589 612.929L149.436 513.841L50.3855 502.691L39.1828 602.063ZM45.0362 636.738L129.201 582.722L129.201 582.722L45.0362 636.738ZM68.2111 651.477L86.9223 553.24L86.9222 553.24L68.2111 651.477ZM143.878 629.455L198.125 713.454L202.385 710.702L206.345 707.534L143.878 629.455ZM146.146 627.641L225.121 566.285L162.893 486.181L83.6783 549.562L146.146 627.641ZM232.047 656.504L266.436 750.4L266.436 750.4L232.047 656.504ZM286.823 575.466L386.489 583.61L391.97 516.672L332.08 486.286L286.823 575.466ZM286.792 575.451L197.068 531.312L153.456 619.943L241.535 664.631L286.792 575.451ZM288.586 571.804L333.793 482.599L243.538 436.871L198.862 527.666L288.586 571.804ZM356.242 566.373L290.478 491.05L290.478 491.05L356.242 566.373ZM369.963 503.752L463.289 467.818L449.649 432.38L415.923 414.932L369.963 503.752ZM369.668 503.6L280.317 458.711L235.942 547.016L323.708 592.42L369.668 503.6ZM359.83 392.619L291.493 465.638L291.493 465.638L359.83 392.619ZM260.41 381.238L170.791 425.62L215.685 516.297L305.833 470.319L260.41 381.238ZM258.607 377.597L213.271 288.471L125.099 333.333L168.988 421.979L258.607 377.597ZM258.778 377.51L304.114 466.635L356.989 439.732L358.735 380.436L258.778 377.51ZM150.708 384.968C153.927 381.592 156.54 380.592 158.153 380.21C160.184 379.729 161.888 379.966 162.78 380.266L226.584 190.706C154.141 166.333 67.2366 182.691 5.94932 246.989L150.708 384.968ZM168.827 273.419L168.79 273.341L-12.1327 358.616L-12.0961 358.694L168.827 273.419ZM168.981 273.747L168.955 273.692L-12.2244 358.421L-12.1989 358.475L168.981 273.747ZM121.322 406.421L121.667 406.255L35.1146 225.967L34.7692 226.133L121.322 406.421ZM150.581 385.103L150.688 384.989L5.40283 247.565L5.29536 247.678L150.581 385.103ZM8.15499 388.028L8.19767 388.07L147.679 244.711L147.636 244.67L8.15499 388.028ZM118.037 407.998L121.172 406.493L34.6192 226.205L31.4847 227.711L118.037 407.998ZM85.9554 403.437C73.4138 408.046 55.0362 410.795 34.4134 404.192C11.834 396.963 -6.34242 380.57 -15.877 360.116L165.399 275.593C151.514 245.806 126.271 223.591 95.423 213.715C66.5321 204.465 38.6849 207.741 16.9874 215.716L85.9554 403.437ZM134.389 334.212C134.386 368.777 111.236 394.145 85.9554 403.437L16.9874 215.716C-26.5717 231.726 -65.606 274.891 -65.6109 334.228L134.389 334.212ZM30.365 434.22L34.3808 434.22L34.3973 234.22L30.3815 234.22L30.365 434.22ZM-69.6262 333.898L-69.6265 334.028L130.373 334.412L130.373 334.282L-69.6262 333.898ZM93.9505 411.268L94.0674 411.171L-33.3203 257.009L-33.4371 257.106L93.9505 411.268ZM-0.409062 414.471C-3.27698 415.437 -9.32413 416.822 -18.0452 415.068C-27.8254 413.102 -39.2806 407.324 -47.7423 396.779L108.256 271.594C58.5944 209.705 -16.1968 208.764 -64.2046 224.929L-0.409062 414.471ZM22.0411 381.787C20.1579 394.888 14.1055 403.411 10.0817 407.575C6.19548 411.597 2.53743 413.479 -0.40908 414.471L-64.2045 224.929C-110.77 240.609 -165.798 282.914 -175.924 353.364L22.0411 381.787ZM21.7921 367.655C21.8786 367.894 22.1234 368.596 22.3267 370.085C22.4873 371.26 22.9662 375.351 22.0411 381.787L-175.924 353.364C-180.235 383.355 -174.588 412.763 -166.276 435.734L21.7921 367.655ZM13.5519 357.489C17.6096 360.974 19.6986 363.942 20.5242 365.233C21.3986 366.601 21.7019 367.406 21.792 367.655L-166.276 435.734C-157.779 459.216 -142.46 487.153 -116.785 509.208L13.5519 357.489ZM22.7459 500.303L25.1708 497.396L-128.404 369.301L-130.829 372.208L22.7459 500.303ZM-132.922 497.733L-132.912 497.745L24.8489 374.791L24.839 374.778L-132.922 497.733ZM22.5753 500.507L22.6928 500.366L-130.881 372.27L-130.998 372.411L22.5753 500.507ZM-117.015 358.605C-195.142 421.623 -212.856 519.689 -171.408 598.221L5.47136 504.845C6.5654 506.918 7.38207 510.364 6.56819 514.189C6.18799 515.976 5.60757 517.024 5.45584 517.263C5.31764 517.481 5.98558 516.323 8.53644 514.266L-117.015 358.605ZM-171.408 598.221C-130.949 674.88 -43.3503 716.943 52.3138 700.285L18.0358 503.25C8.47449 504.915 4.45916 503.057 4.11811 502.898C3.41693 502.572 4.40676 502.828 5.47138 504.845L-171.408 598.221ZM50.3855 502.691L46.3943 502.241L23.9889 700.986L27.9801 701.435L50.3855 502.691ZM129.201 582.722C134.6 591.135 137.004 598.975 137.992 604.494C138.477 607.201 138.619 609.321 138.648 610.713C138.677 612.103 138.595 612.87 138.589 612.929L-60.2233 591.197C-63.4989 621.119 -60.3908 657.62 -39.1289 690.754L129.201 582.722ZM86.9222 553.24C92.3444 554.272 99.8917 556.617 108.003 561.718C116.36 566.972 123.709 574.163 129.201 582.722L-39.1289 690.754C-16.7203 725.675 17.3236 743.591 49.5 749.714L86.9222 553.24ZM89.6303 545.457C86.2551 547.637 83.2394 549.275 80.7117 550.459C78.1614 551.654 76.3569 552.272 75.3937 552.549C74.3853 552.84 74.723 552.639 76.35 552.504C77.9228 552.375 81.6319 552.233 86.9223 553.24L49.4998 749.714C105.778 760.425 160.524 737.74 198.125 713.454L89.6303 545.457ZM83.6783 549.562L81.4102 551.377L206.345 707.534L208.613 705.719L83.6783 549.562ZM197.659 562.609C203.583 560.438 210.592 560.118 217.071 562.108C223.69 564.141 225.947 567.349 225.121 566.285L67.1706 688.997C116.337 752.287 194.655 776.699 266.436 750.4L197.659 562.609ZM187.156 567.322C186.781 571.901 185.714 572.072 187.204 569.977C188.607 568.005 191.868 564.731 197.658 562.609L266.436 750.4C335.896 724.951 380.287 659.367 386.489 583.61L187.156 567.322ZM241.535 664.631L241.566 664.646L332.08 486.286L332.049 486.27L241.535 664.631ZM198.862 527.666L197.068 531.312L376.517 619.589L378.311 615.943L198.862 527.666ZM290.478 491.05C297.801 484.657 306.638 480.921 315.418 479.964C324.459 478.978 330.946 481.156 333.793 482.599L243.38 661.01C303.781 691.612 373.273 684.246 422.006 641.695L290.478 491.05ZM276.636 539.687C274.478 534.078 273.174 525.442 275.595 515.516C277.935 505.921 283.232 497.377 290.478 491.05L422.006 641.695C470.162 599.649 487.805 531.512 463.289 467.818L276.636 539.687ZM323.708 592.42L324.003 592.573L415.923 414.932L415.628 414.78L323.708 592.42ZM291.493 465.638C289.53 463.8 287.721 461.487 286.321 458.786C284.898 456.042 284.186 453.454 283.922 451.446C283.343 447.035 285.214 448.965 280.317 458.711L459.019 548.489C499.874 467.189 490.315 377.762 428.166 319.6L291.493 465.638ZM305.833 470.319C305.516 470.48 299.166 472.818 291.493 465.638L428.167 319.6C371.475 266.545 286.159 255.857 214.987 292.157L305.833 470.319ZM168.988 421.979L170.791 425.62L350.028 336.856L348.226 333.215L168.988 421.979ZM213.443 288.384L213.271 288.471L303.942 466.722L304.114 466.635L213.443 288.384ZM162.78 380.266C163.665 380.564 162.433 380.406 160.788 378.183C159.963 377.069 159.364 375.846 159.031 374.769C158.695 373.682 158.854 373.479 158.822 374.583L358.735 380.436C361.542 285.083 300.817 215.681 226.584 190.706L162.78 380.266ZM-54.0316 436.268L71.2448 592.151L-179.262 280.349L-54.0316 436.268ZM-54.0939 436.318L-179.395 280.456L71.1825 592.201L-54.0939 436.318ZM-54.2115 436.459L-184.515 588.208L76.2004 284.804L-54.2115 436.459ZM-54.2392 436.435L76.1727 284.78L-184.72 588.031L-54.2392 436.435ZM35.1748 601.768L-163.671 580.348L234.002 623.362L35.1748 601.768ZM35.1916 601.614L234.019 623.208L-163.619 579.867L35.1916 601.614ZM34.8134 605.962L234.409 618.641L250.427 367.127L1.85264 408.702L34.8134 605.962ZM41.6709 638.962L-126.659 746.994L-126.659 746.995L41.6709 638.962ZM67.4703 655.483L104.892 459.009L104.892 459.009L67.4703 655.483ZM145.478 633.251L298.958 504.991L185.946 369.749L37.5532 464.887L145.478 633.251ZM233.41 660.338L164.633 472.547L164.633 472.547L233.41 660.338ZM290.693 577.306L372.003 394.567L117.46 281.341L91.5593 558.745L290.693 577.306ZM358.861 569.462L490.388 720.107L490.389 720.107L358.861 569.462ZM374.184 503.554L194.372 416.019L157.239 492.276L186.239 571.971L374.184 503.554ZM362.553 389.623L225.879 535.661L225.879 535.661L362.553 389.623ZM262.835 375.56L62.8478 373.304L59.2504 687.585L345.47 557.677L262.835 375.56ZM195.946 281.618L132.143 471.178L132.143 471.178L195.946 281.618ZM76.1997 312.358L-85.8955 429.539L53.8054 622.807L219.802 451.541L76.1997 312.358ZM50.1045 305.745L-18.8635 118.024L-18.8635 118.024L50.1045 305.745ZM30.85 328.691L-115.768 464.742L157.972 759.751L227.816 363.365L30.85 328.691ZM-33.5709 315.832L30.2246 505.374L30.2246 505.374L-33.5709 315.832ZM-80.9153 366.988L-278.881 338.565L-278.881 338.565L-80.9153 366.988ZM-76.0116 403.1L-264.079 471.179L-264.079 471.179L-76.0116 403.1ZM-57.2464 433.657L69.0499 588.715L241.693 448.085L83.4441 291.486L-57.2464 433.657ZM-86.5085 553.458L90.3711 460.082L90.3711 460.082L-86.5085 553.458ZM-179.262 280.349C-179.323 280.397 -179.376 280.44 -179.395 280.456L71.2076 592.181C71.2122 592.177 71.2149 592.175 71.217 592.173C71.2189 592.171 71.2193 592.171 71.2187 592.172C71.2177 592.172 71.2105 592.178 71.1992 592.187L-179.262 280.349ZM-184.72 588.031C-184.698 588.05 -184.616 588.12 -184.515 588.208L76.0917 284.711C76.1359 284.749 76.172 284.78 76.1964 284.801C76.2202 284.821 76.2378 284.836 76.2419 284.84L-184.72 588.031ZM-163.619 579.867C-163.634 580.004 -163.652 580.167 -163.671 580.348L234.021 623.188C234.012 623.266 234.006 623.326 234.002 623.361L-163.619 579.867ZM-164.782 593.283C-167.532 636.455 -161.175 693.205 -126.659 746.994L210.001 530.93C234.008 568.343 235.397 603.124 234.409 618.641L-164.782 593.283ZM-126.659 746.995C-86.2137 810.024 -25.0298 841.475 30.0482 851.957L104.892 459.009C138.085 465.326 181.186 486.026 210.001 530.93L-126.659 746.995ZM30.0482 851.957C123.536 869.748 205.769 832.154 253.404 801.614L37.5532 464.887C37.6492 464.826 38.4413 464.322 40.0642 463.566C41.6437 462.831 44.5822 461.591 48.9442 460.343C55.885 458.357 76.1859 453.546 104.892 459.009L30.0482 851.957ZM-8.00139 761.51C68.0279 852.495 189.452 889.433 302.187 848.129L164.633 472.547C188.972 463.629 216.499 462.203 242.78 469.676C269.321 477.222 287.994 491.87 298.958 504.991L-8.00139 761.51ZM302.187 848.129C413.247 807.438 479.617 705.216 489.827 595.867L91.5593 558.745C93.7887 534.868 112.46 491.662 164.633 472.547L302.187 848.129ZM209.383 760.045C303.127 801.744 412.128 788.439 490.388 720.107L227.334 418.817C272.361 379.502 330.863 376.267 372.003 394.567L209.383 760.045ZM490.389 720.107C570.449 650.204 599.594 538.093 562.129 435.136L186.239 571.971C167.832 521.385 181.466 458.865 227.333 418.817L490.389 720.107ZM553.997 591.089C609.833 476.419 599.16 337.109 499.226 243.585L225.879 535.661C205.912 516.974 192.623 491.654 188.875 464.838C185.197 438.52 191.943 421.007 194.372 416.019L553.997 591.089ZM499.226 243.585C412.522 162.443 286.04 145.405 180.2 193.443L345.47 557.677C311.107 573.273 262.945 570.348 225.879 535.661L499.226 243.585ZM462.822 377.816C464.468 234.015 370.602 129.352 259.75 92.0573L132.143 471.178C116.189 465.81 98.4224 454.85 84.2512 436.085C69.1841 416.133 62.6214 393.082 62.8478 373.304L462.822 377.816ZM259.75 92.0573C151.43 55.6139 22.8728 80.0342 -67.4026 173.175L219.802 451.541C198.473 473.547 164.004 481.897 132.143 471.178L259.75 92.0573ZM238.295 195.177C164.946 93.7029 48.3905 93.3051 -18.8635 118.024L119.072 493.465C70.3292 511.381 -24.8559 513.984 -85.8955 429.539L238.295 195.177ZM-18.8635 118.024C-87.2731 143.167 -150.399 204.818 -166.116 294.017L227.816 363.365C216.132 429.676 169.296 475.006 119.073 493.465L-18.8635 118.024ZM177.468 192.641C90.8426 99.2847 -26.5454 102.443 -97.3664 126.29L30.2246 505.374C3.86677 514.25 -62.519 522.128 -115.768 464.742L177.468 192.641ZM-97.3663 126.29C-168.844 150.358 -261.53 217.857 -278.881 338.565L117.05 395.411C111.841 431.649 94.7101 458.091 79.0416 474.286C63.7912 490.05 46.7285 499.817 30.2246 505.374L-97.3663 126.29ZM-278.881 338.565C-286.261 389.913 -276.461 436.961 -264.079 471.179L112.056 335.021C114.322 341.283 116.262 348.556 117.428 357.091C118.521 365.088 119.503 378.342 117.05 395.411L-278.881 338.565ZM-264.079 471.179C-252.418 503.406 -232.072 542.049 -197.937 575.829L83.4441 291.486C92.6812 300.627 98.8983 309.342 102.985 316.11C107.12 322.958 109.999 329.335 112.056 335.021L-264.079 471.179ZM90.3711 460.082C101.441 481.055 106.103 507.213 100.514 533.84C94.7209 561.433 80.0944 579.718 69.0499 588.715L-183.543 278.6C-298.578 372.304 -328.32 523.807 -263.388 646.834L90.3711 460.082ZM1.85264 408.702C10.4244 407.269 26.4093 407.374 44.9174 416.064C62.775 424.45 79.4139 439.321 90.3711 460.082L-263.388 646.833C-200.612 765.776 -67.9021 825.914 67.7741 803.222L1.85264 408.702ZM-163.636 580.019L-163.652 580.173L234.002 623.362L234.019 623.208L-163.636 580.019ZM-184.651 588.09L-184.623 588.114L76.2004 284.804L76.1727 284.78L-184.651 588.09ZM71.1825 592.201L71.2448 592.151L-179.308 280.385L-179.37 280.435L71.1825 592.201Z" fill="#FFFCF8" mask="url(#path-3-inside-1_1295_237)"/>
<mask id="path-5-inside-2_1295_237" fill="white">
<path fill-rule="evenodd" clip-rule="evenodd" d="M379.813 698.962C378.933 712.79 381.417 723.774 386.671 731.962C392.486 741.025 401.528 746.4 412.47 748.483C433.735 752.53 462.435 744.23 490.478 726.251C515.639 756.361 549.542 763.914 578.41 753.338C607.853 742.55 631.703 713.042 635.693 670.306C661.995 682.006 687.244 676.971 703.861 662.462C720.957 647.535 728.713 622.739 719.184 596.554C743.14 547.358 733.149 506.577 707.553 482.623C682.734 459.396 643.574 452.339 607.835 468.56C608.379 420.965 578.992 387.418 540.946 374.618C502.717 361.756 455.673 369.791 421.2 405.358C415.045 396.843 404.36 395.343 395.104 398.745C386.011 402.087 377.866 410.247 375.85 421.691C359.162 403.706 333.661 401.347 311.429 408.832C288.075 416.696 267.581 435.663 264.085 459.988C262.599 470.326 264.427 483.494 268.988 496.1C273.072 507.386 279.412 518.403 287.754 526.657C244.988 561.493 239.012 609.549 258.492 646.458C277.899 683.23 322.363 708.571 379.813 698.962ZM539.682 378.486C502.566 365.999 456.745 373.921 423.329 408.979L423.365 409.056L423.391 409.111L423.046 409.277L422.938 409.391L422.895 409.349L419.761 410.854C415.41 401.521 405.627 399.211 396.471 402.576C387.332 405.935 379.39 414.834 379.389 427.22L375.373 427.22L375.374 427.09L375.257 427.187C360.091 408.286 335.073 405.165 312.693 412.7C290.284 420.246 271.269 438.239 268.058 460.575C266.694 470.065 268.358 482.533 272.758 494.695C277.154 506.844 284.201 518.46 293.383 526.348L290.958 529.255L290.968 529.268C290.948 529.285 290.927 529.301 290.906 529.318L290.789 529.459C290.779 529.451 290.77 529.443 290.761 529.435C249.003 563.118 243.421 609.271 262.032 644.533C280.664 679.835 323.76 704.591 380.175 694.768C380.18 694.717 380.186 694.665 380.192 694.614L384.183 695.063C382.51 710.347 384.904 721.74 390.036 729.738C395.147 737.702 403.139 742.56 413.211 744.477C433.186 748.279 461.065 740.42 488.878 722.455L491.146 720.641C515.521 752.019 548.94 759.803 577.047 749.504C605.189 739.194 628.372 710.612 631.823 668.466L631.792 668.451L633.586 664.804C659.927 678.15 685.113 673.456 701.242 659.373C717.317 645.337 724.607 621.809 714.963 596.752L714.668 596.6C739.139 547.903 729.217 508.441 704.83 485.619C680.32 462.682 640.838 456.169 605.41 474.238L603.607 470.597L603.778 470.51C605.152 423.84 576.811 390.978 539.682 378.486Z"/>
<path d="M423.329 408.979C456.745 373.921 502.566 365.999 539.682 378.486C576.811 390.978 605.152 423.84 603.778 470.51L603.607 470.597L605.41 474.238C640.838 456.169 680.32 462.682 704.83 485.619C729.217 508.441 739.139 547.903 714.668 596.6L714.963 596.752C724.607 621.809 717.317 645.337 701.242 659.373C685.113 673.456 659.927 678.15 633.586 664.804L631.792 668.451L631.823 668.466C628.372 710.612 605.189 739.194 577.047 749.504C548.94 759.803 515.521 752.019 491.146 720.641L488.878 722.455C461.065 740.42 433.186 748.279 413.211 744.477C403.139 742.56 395.147 737.702 390.036 729.738C384.904 721.74 382.51 710.347 384.183 695.063L380.192 694.614L380.175 694.768C323.76 704.591 280.664 679.835 262.032 644.533C243.421 609.271 249.003 563.118 290.761 529.435L290.789 529.459L290.906 529.318L290.968 529.268L290.958 529.255L293.383 526.348C284.201 518.46 277.154 506.844 272.758 494.695C268.358 482.533 266.694 470.065 268.058 460.575C271.269 438.239 290.284 420.246 312.693 412.7C335.073 405.165 360.091 408.286 375.257 427.187L375.374 427.09L375.373 427.22L379.389 427.22C379.39 414.834 387.332 405.935 396.471 402.576C405.627 399.211 415.41 401.521 419.761 410.854L422.895 409.349L422.938 409.391L423.046 409.277L423.391 409.111L423.365 409.056L423.329 408.979Z"/>
</mask>
<path fill-rule="evenodd" clip-rule="evenodd" d="M379.813 698.962C378.933 712.79 381.417 723.774 386.671 731.962C392.486 741.025 401.528 746.4 412.47 748.483C433.735 752.53 462.435 744.23 490.478 726.251C515.639 756.361 549.542 763.914 578.41 753.338C607.853 742.55 631.703 713.042 635.693 670.306C661.995 682.006 687.244 676.971 703.861 662.462C720.957 647.535 728.713 622.739 719.184 596.554C743.14 547.358 733.149 506.577 707.553 482.623C682.734 459.396 643.574 452.339 607.835 468.56C608.379 420.965 578.992 387.418 540.946 374.618C502.717 361.756 455.673 369.791 421.2 405.358C415.045 396.843 404.36 395.343 395.104 398.745C386.011 402.087 377.866 410.247 375.85 421.691C359.162 403.706 333.661 401.347 311.429 408.832C288.075 416.696 267.581 435.663 264.085 459.988C262.599 470.326 264.427 483.494 268.988 496.1C273.072 507.386 279.412 518.403 287.754 526.657C244.988 561.493 239.012 609.549 258.492 646.458C277.899 683.23 322.363 708.571 379.813 698.962ZM539.682 378.486C502.566 365.999 456.745 373.921 423.329 408.979L423.365 409.056L423.391 409.111L423.046 409.277L422.938 409.391L422.895 409.349L419.761 410.854C415.41 401.521 405.627 399.211 396.471 402.576C387.332 405.935 379.39 414.834 379.389 427.22L375.373 427.22L375.374 427.09L375.257 427.187C360.091 408.286 335.073 405.165 312.693 412.7C290.284 420.246 271.269 438.239 268.058 460.575C266.694 470.065 268.358 482.533 272.758 494.695C277.154 506.844 284.201 518.46 293.383 526.348L290.958 529.255L290.968 529.268C290.948 529.285 290.927 529.301 290.906 529.318L290.789 529.459C290.779 529.451 290.77 529.443 290.761 529.435C249.003 563.118 243.421 609.271 262.032 644.533C280.664 679.835 323.76 704.591 380.175 694.768C380.18 694.717 380.186 694.665 380.192 694.614L384.183 695.063C382.51 710.347 384.904 721.74 390.036 729.738C395.147 737.702 403.139 742.56 413.211 744.477C433.186 748.279 461.065 740.42 488.878 722.455L491.146 720.641C515.521 752.019 548.94 759.803 577.047 749.504C605.189 739.194 628.372 710.612 631.823 668.466L631.792 668.451L633.586 664.804C659.927 678.15 685.113 673.456 701.242 659.373C717.317 645.337 724.607 621.809 714.963 596.752L714.668 596.6C739.139 547.903 729.217 508.441 704.83 485.619C680.32 462.682 640.838 456.169 605.41 474.238L603.607 470.597L603.778 470.51C605.152 423.84 576.811 390.978 539.682 378.486Z" fill="#FFFCF8"/>
<path d="M423.329 408.979C456.745 373.921 502.566 365.999 539.682 378.486C576.811 390.978 605.152 423.84 603.778 470.51L603.607 470.597L605.41 474.238C640.838 456.169 680.32 462.682 704.83 485.619C729.217 508.441 739.139 547.903 714.668 596.6L714.963 596.752C724.607 621.809 717.317 645.337 701.242 659.373C685.113 673.456 659.927 678.15 633.586 664.804L631.792 668.451L631.823 668.466C628.372 710.612 605.189 739.194 577.047 749.504C548.94 759.803 515.521 752.019 491.146 720.641L488.878 722.455C461.065 740.42 433.186 748.279 413.211 744.477C403.139 742.56 395.147 737.702 390.036 729.738C384.904 721.74 382.51 710.347 384.183 695.063L380.192 694.614L380.175 694.768C323.76 704.591 280.664 679.835 262.032 644.533C243.421 609.271 249.003 563.118 290.761 529.435L290.789 529.459L290.906 529.318L290.968 529.268L290.958 529.255L293.383 526.348C284.201 518.46 277.154 506.844 272.758 494.695C268.358 482.533 266.694 470.065 268.058 460.575C271.269 438.239 290.284 420.246 312.693 412.7C335.073 405.165 360.091 408.286 375.257 427.187L375.374 427.09L375.373 427.22L379.389 427.22C379.39 414.834 387.332 405.935 396.471 402.576C405.627 399.211 415.41 401.521 419.761 410.854L422.895 409.349L422.938 409.391L423.046 409.277L423.391 409.111L423.365 409.056L423.329 408.979Z" fill="#FFFCF8"/>
<path d="M423.329 408.979L350.949 339.989L303.65 389.612L332.867 451.616L423.329 408.979ZM539.682 378.486L507.78 473.266L507.78 473.266L539.682 378.486ZM423.365 409.056L513.955 366.692L513.891 366.555L513.827 366.419L423.365 409.056ZM423.391 409.111L466.667 499.255L555.898 456.405L513.981 366.747L423.391 409.111ZM423.046 409.277L379.769 319.133L363.106 327.135L350.403 340.565L423.046 409.277ZM422.938 409.391L353.198 481.07L425.882 551.787L495.581 478.103L422.938 409.391ZM422.895 409.349L492.636 337.67L442.582 288.97L379.619 319.205L422.895 409.349ZM419.761 410.854L329.123 453.116L371.854 544.785L463.037 500.998L419.761 410.854ZM396.471 402.576L361.987 308.716L361.987 308.716L396.471 402.576ZM379.389 427.22L379.381 527.22L479.381 527.212L479.389 427.212L379.389 427.22ZM375.373 427.22L275.373 427.028L275.165 527.228L375.365 527.22L375.373 427.22ZM375.374 427.09L475.373 427.282L475.817 214.37L311.68 350.009L375.374 427.09ZM375.257 427.187L297.258 489.779L360.743 568.896L438.951 504.268L375.257 427.187ZM312.693 412.7L344.591 507.471L344.591 507.471L312.693 412.7ZM268.058 460.575L367.041 474.787L367.041 474.787L268.058 460.575ZM272.758 494.695L178.724 528.734L178.724 528.734L272.758 494.695ZM293.383 526.348L370.171 590.396L433.307 514.705L358.552 450.489L293.383 526.348ZM290.958 529.255L214.171 465.208L162.516 527.135L212.078 590.733L290.958 529.255ZM262.032 644.533L350.471 597.845L350.471 597.845L262.032 644.533ZM384.183 695.063L483.589 705.929L494.436 606.841L395.386 595.691L384.183 695.063ZM390.036 729.738L474.201 675.722L474.201 675.722L390.036 729.738ZM413.211 744.477L431.922 646.24L431.922 646.24L413.211 744.477ZM488.878 722.455L543.125 806.454L547.385 803.702L551.345 800.534L488.878 722.455ZM491.146 720.641L570.121 659.285L507.893 579.181L428.678 642.562L491.146 720.641ZM577.047 749.504L611.436 843.4L611.436 843.4L577.047 749.504ZM631.823 668.466L731.489 676.61L736.97 609.672L677.08 579.286L631.823 668.466ZM631.792 668.451L542.068 624.312L498.456 712.943L586.535 757.631L631.792 668.451ZM633.586 664.804L678.793 575.599L588.538 529.871L543.862 620.666L633.586 664.804ZM701.242 659.373L635.478 584.05L635.478 584.05L701.242 659.373ZM714.963 596.752L808.289 560.818L794.649 525.38L760.923 507.932L714.963 596.752ZM714.668 596.6L625.317 551.711L580.942 640.016L668.708 685.42L714.668 596.6ZM704.83 485.619L636.493 558.638L636.493 558.638L704.83 485.619ZM605.41 474.238L515.791 518.62L560.685 609.297L650.833 563.319L605.41 474.238ZM603.607 470.597L558.271 381.471L470.099 426.333L513.988 514.979L603.607 470.597ZM603.778 470.51L649.114 559.635L701.989 532.732L703.735 473.436L603.778 470.51ZM495.708 477.968C498.927 474.592 501.54 473.592 503.153 473.21C505.184 472.729 506.888 472.966 507.78 473.266L571.584 283.706C499.141 259.333 412.237 275.691 350.949 339.989L495.708 477.968ZM513.827 366.419L513.79 366.341L332.867 451.616L332.904 451.694L513.827 366.419ZM513.981 366.747L513.955 366.692L332.776 451.421L332.801 451.475L513.981 366.747ZM466.322 499.421L466.667 499.255L380.115 318.967L379.769 319.133L466.322 499.421ZM495.581 478.103L495.688 477.989L350.403 340.565L350.295 340.678L495.581 478.103ZM353.155 481.028L353.198 481.07L492.679 337.711L492.636 337.67L353.155 481.028ZM463.037 500.998L466.172 499.493L379.619 319.205L376.485 320.711L463.037 500.998ZM430.955 496.437C418.414 501.046 400.036 503.795 379.413 497.192C356.834 489.963 338.658 473.57 329.123 453.116L510.399 368.593C496.514 338.806 471.271 316.591 440.423 306.715C411.532 297.465 383.685 300.741 361.987 308.716L430.955 496.437ZM479.389 427.212C479.386 461.777 456.236 487.145 430.955 496.437L361.987 308.716C318.428 324.726 279.394 367.891 279.389 427.228L479.389 427.212ZM375.365 527.22L379.381 527.22L379.397 327.22L375.382 327.22L375.365 527.22ZM275.374 426.898L275.373 427.028L475.373 427.412L475.373 427.282L275.374 426.898ZM438.951 504.268L439.067 504.171L311.68 350.009L311.563 350.106L438.951 504.268ZM344.591 507.471C341.723 508.437 335.676 509.822 326.955 508.068C317.175 506.102 305.719 500.324 297.258 489.779L453.256 364.594C403.594 302.705 328.803 301.764 280.795 317.929L344.591 507.471ZM367.041 474.787C365.158 487.888 359.106 496.411 355.082 500.575C351.195 504.597 347.537 506.479 344.591 507.471L280.795 317.929C234.23 333.609 179.202 375.914 169.076 446.364L367.041 474.787ZM366.792 460.655C366.879 460.894 367.123 461.596 367.327 463.085C367.487 464.26 367.966 468.351 367.041 474.787L169.076 446.364C164.765 476.355 170.412 505.763 178.724 528.734L366.792 460.655ZM358.552 450.489C362.61 453.974 364.699 456.942 365.524 458.233C366.399 459.601 366.702 460.406 366.792 460.655L178.724 528.734C187.221 552.216 202.54 580.153 228.215 602.208L358.552 450.489ZM367.746 593.303L370.171 590.396L216.596 462.301L214.171 465.208L367.746 593.303ZM212.078 590.733L212.088 590.745L369.849 467.791L369.839 467.778L212.078 590.733ZM367.575 593.507L367.693 593.366L214.119 465.27L214.002 465.411L367.575 593.507ZM227.985 451.605C149.858 514.623 132.144 612.689 173.592 691.221L350.471 597.845C351.565 599.918 352.382 603.364 351.568 607.189C351.188 608.976 350.608 610.024 350.456 610.263C350.318 610.481 350.986 609.323 353.536 607.266L227.985 451.605ZM173.592 691.221C214.051 767.88 301.65 809.943 397.314 793.285L363.036 596.25C353.474 597.915 349.459 596.057 349.118 595.898C348.417 595.572 349.407 595.828 350.471 597.845L173.592 691.221ZM395.386 595.691L391.394 595.241L368.989 793.986L372.98 794.435L395.386 595.691ZM474.201 675.722C479.6 684.135 482.004 691.975 482.992 697.494C483.477 700.201 483.619 702.321 483.648 703.713C483.677 705.103 483.595 705.87 483.589 705.929L284.777 684.197C281.501 714.119 284.609 750.62 305.871 783.754L474.201 675.722ZM431.922 646.24C437.344 647.272 444.892 649.617 453.003 654.718C461.36 659.972 468.709 667.163 474.201 675.722L305.871 783.754C328.28 818.675 362.324 836.591 394.5 842.714L431.922 646.24ZM434.63 638.457C431.255 640.637 428.239 642.275 425.712 643.459C423.161 644.654 421.357 645.272 420.394 645.549C419.385 645.84 419.723 645.639 421.35 645.504C422.923 645.375 426.632 645.233 431.922 646.24L394.5 842.714C450.778 853.425 505.524 830.74 543.125 806.454L434.63 638.457ZM428.678 642.562L426.41 644.377L551.345 800.534L553.613 798.719L428.678 642.562ZM542.659 655.609C548.583 653.438 555.592 653.118 562.071 655.108C568.69 657.141 570.947 660.349 570.121 659.285L412.171 781.997C461.337 845.287 539.655 869.699 611.436 843.4L542.659 655.609ZM532.156 660.322C531.781 664.901 530.714 665.072 532.204 662.977C533.607 661.005 536.868 657.731 542.658 655.609L611.436 843.4C680.896 817.951 725.287 752.367 731.489 676.61L532.156 660.322ZM586.535 757.631L586.566 757.646L677.08 579.286L677.049 579.27L586.535 757.631ZM543.862 620.666L542.068 624.312L721.517 712.589L723.311 708.943L543.862 620.666ZM635.478 584.05C642.801 577.657 651.638 573.921 660.418 572.964C669.459 571.978 675.946 574.156 678.793 575.599L588.38 754.01C648.781 784.612 718.273 777.246 767.006 734.695L635.478 584.05ZM621.636 632.687C619.478 627.078 618.174 618.442 620.595 608.516C622.935 598.921 628.232 590.377 635.478 584.05L767.006 734.695C815.162 692.649 832.805 624.512 808.289 560.818L621.636 632.687ZM668.708 685.42L669.003 685.573L760.923 507.932L760.628 507.78L668.708 685.42ZM636.493 558.638C634.53 556.8 632.721 554.487 631.321 551.786C629.898 549.042 629.186 546.454 628.922 544.446C628.343 540.035 630.214 541.965 625.317 551.711L804.019 641.489C844.874 560.189 835.315 470.762 773.166 412.6L636.493 558.638ZM650.833 563.319C650.516 563.48 644.166 565.818 636.493 558.638L773.167 412.6C716.475 359.545 631.159 348.857 559.987 385.157L650.833 563.319ZM513.988 514.979L515.791 518.62L695.028 429.856L693.226 426.215L513.988 514.979ZM558.443 381.384L558.271 381.471L648.942 559.722L649.114 559.635L558.443 381.384ZM507.78 473.266C508.665 473.564 507.433 473.406 505.788 471.183C504.963 470.069 504.364 468.846 504.031 467.769C503.695 466.682 503.854 466.479 503.822 467.583L703.735 473.436C706.542 378.083 645.817 308.681 571.584 283.706L507.78 473.266ZM290.968 529.268L416.245 685.151L165.738 373.349L290.968 529.268ZM290.906 529.318L165.605 373.456L416.182 685.201L290.906 529.318ZM290.789 529.459L160.485 681.208L421.2 377.804L290.789 529.459ZM290.761 529.435L421.173 377.78L160.28 681.031L290.761 529.435ZM380.175 694.768L181.329 673.348L579.002 716.362L380.175 694.768ZM380.192 694.614L579.019 716.208L181.381 672.867L380.192 694.614ZM379.813 698.962L579.409 711.641L595.427 460.127L346.853 501.702L379.813 698.962ZM386.671 731.962L218.341 839.994L218.341 839.995L386.671 731.962ZM412.47 748.483L449.892 552.009L449.892 552.009L412.47 748.483ZM490.478 726.251L643.958 597.991L530.946 462.749L382.553 557.887L490.478 726.251ZM578.41 753.338L509.633 565.547L509.633 565.547L578.41 753.338ZM635.693 670.306L717.003 487.567L462.46 374.341L436.559 651.745L635.693 670.306ZM703.861 662.462L835.388 813.107L835.389 813.107L703.861 662.462ZM719.184 596.554L539.372 509.019L502.239 585.276L531.239 664.971L719.184 596.554ZM707.553 482.623L570.879 628.661L570.879 628.661L707.553 482.623ZM607.835 468.56L407.848 466.304L404.25 780.585L690.47 650.677L607.835 468.56ZM540.946 374.618L477.143 564.178L477.143 564.178L540.946 374.618ZM421.2 405.358L259.104 522.539L398.805 715.807L564.802 544.541L421.2 405.358ZM395.104 398.745L326.137 211.024L326.136 211.024L395.104 398.745ZM375.85 421.691L229.232 557.742L502.972 852.751L572.816 456.365L375.85 421.691ZM311.429 408.832L375.225 598.374L375.225 598.374L311.429 408.832ZM264.085 459.988L66.1193 431.565L66.1193 431.565L264.085 459.988ZM268.988 496.1L80.9206 564.179L80.9206 564.179L268.988 496.1ZM287.754 526.657L414.05 681.715L586.693 541.085L428.444 384.486L287.754 526.657ZM258.492 646.458L435.371 553.082L435.371 553.082L258.492 646.458ZM165.738 373.349C165.677 373.397 165.624 373.44 165.605 373.456L416.208 685.181C416.212 685.177 416.215 685.175 416.217 685.173C416.219 685.171 416.219 685.171 416.219 685.172C416.218 685.172 416.21 685.178 416.199 685.187L165.738 373.349ZM160.28 681.031C160.302 681.05 160.384 681.12 160.485 681.208L421.092 377.711C421.136 377.749 421.172 377.78 421.196 377.801C421.22 377.821 421.238 377.836 421.242 377.84L160.28 681.031ZM181.381 672.867C181.366 673.004 181.348 673.167 181.329 673.348L579.021 716.188C579.012 716.266 579.006 716.326 579.002 716.361L181.381 672.867ZM180.218 686.283C177.468 729.455 183.825 786.205 218.341 839.994L555.001 623.93C579.008 661.343 580.397 696.124 579.409 711.641L180.218 686.283ZM218.341 839.995C258.786 903.024 319.97 934.475 375.048 944.957L449.892 552.009C483.085 558.326 526.186 579.026 555.001 623.93L218.341 839.995ZM375.048 944.957C468.536 962.748 550.769 925.154 598.404 894.614L382.553 557.887C382.649 557.826 383.441 557.322 385.064 556.566C386.644 555.831 389.582 554.591 393.944 553.343C400.885 551.357 421.186 546.546 449.892 552.009L375.048 944.957ZM336.999 854.51C413.028 945.495 534.452 982.433 647.187 941.129L509.633 565.547C533.972 556.629 561.499 555.203 587.78 562.676C614.321 570.222 632.994 584.87 643.958 597.991L336.999 854.51ZM647.187 941.129C758.247 900.438 824.617 798.216 834.827 688.867L436.559 651.745C438.789 627.868 457.46 584.662 509.633 565.547L647.187 941.129ZM554.383 853.045C648.127 894.744 757.128 881.439 835.388 813.107L572.334 511.817C617.361 472.502 675.863 469.267 717.003 487.567L554.383 853.045ZM835.389 813.107C915.449 743.204 944.594 631.093 907.129 528.136L531.239 664.971C512.832 614.385 526.466 551.865 572.333 511.817L835.389 813.107ZM898.997 684.089C954.833 569.419 944.16 430.109 844.226 336.585L570.879 628.661C550.912 609.974 537.623 584.654 533.875 557.838C530.197 531.52 536.943 514.007 539.372 509.019L898.997 684.089ZM844.226 336.585C757.522 255.443 631.04 238.405 525.2 286.443L690.47 650.677C656.107 666.273 607.945 663.348 570.879 628.661L844.226 336.585ZM807.822 470.816C809.468 327.015 715.602 222.352 604.75 185.057L477.143 564.178C461.189 558.81 443.422 547.85 429.251 529.085C414.184 509.133 407.621 486.082 407.848 466.304L807.822 470.816ZM604.75 185.057C496.43 148.614 367.873 173.034 277.597 266.175L564.802 544.541C543.473 566.547 509.004 574.897 477.143 564.178L604.75 185.057ZM583.295 288.177C509.946 186.703 393.39 186.305 326.137 211.024L464.072 586.465C415.329 604.381 320.144 606.984 259.104 522.539L583.295 288.177ZM326.136 211.024C257.727 236.167 194.601 297.818 178.884 387.017L572.816 456.365C561.132 522.676 514.296 568.006 464.073 586.465L326.136 211.024ZM522.468 285.641C435.843 192.285 318.455 195.443 247.634 219.29L375.225 598.374C348.867 607.25 282.481 615.128 229.232 557.742L522.468 285.641ZM247.634 219.29C176.156 243.358 83.4695 310.857 66.1193 431.565L462.05 488.411C456.841 524.649 439.71 551.091 424.042 567.286C408.791 583.05 391.729 592.817 375.225 598.374L247.634 219.29ZM66.1193 431.565C58.7387 482.913 68.5391 529.961 80.9206 564.179L457.056 428.021C459.322 434.283 461.262 441.556 462.428 450.091C463.521 458.088 464.503 471.342 462.05 488.411L66.1193 431.565ZM80.9206 564.179C92.582 596.406 112.928 635.049 147.063 668.829L428.444 384.486C437.681 393.627 443.898 402.342 447.985 409.11C452.12 415.958 454.999 422.335 457.056 428.021L80.9206 564.179ZM435.371 553.082C446.441 574.055 451.103 600.213 445.514 626.84C439.721 654.433 425.094 672.718 414.05 681.715L161.457 371.6C46.4223 465.304 16.6803 616.807 81.6119 739.834L435.371 553.082ZM346.853 501.702C355.424 500.269 371.409 500.374 389.917 509.064C407.775 517.45 424.414 532.321 435.371 553.082L81.6119 739.833C144.388 858.776 277.098 918.914 412.774 896.222L346.853 501.702ZM181.364 673.019L181.348 673.173L579.002 716.362L579.019 716.208L181.364 673.019ZM160.349 681.09L160.377 681.114L421.2 377.804L421.173 377.78L160.349 681.09ZM416.182 685.201L416.245 685.151L165.692 373.385L165.63 373.435L416.182 685.201Z" fill="#FFFCF8" mask="url(#path-5-inside-2_1295_237)"/>
<mask id="path-7-inside-3_1295_237" fill="white">
<path fill-rule="evenodd" clip-rule="evenodd" d="M963.813 -136.962C962.933 -150.79 965.417 -161.774 970.671 -169.962C976.486 -179.025 985.528 -184.4 996.47 -186.483C1017.73 -190.53 1046.44 -182.23 1074.48 -164.251C1099.64 -194.361 1133.54 -201.914 1162.41 -191.338C1191.85 -180.55 1215.7 -151.042 1219.69 -108.306C1246 -120.006 1271.24 -114.971 1287.86 -100.462C1304.96 -85.5347 1312.71 -60.7394 1303.18 -34.5536C1327.14 14.6425 1317.15 55.423 1291.55 79.3772C1266.73 102.604 1227.57 109.661 1191.83 93.4399C1192.38 141.035 1162.99 174.582 1124.95 187.382C1086.72 200.244 1039.67 192.209 1005.2 156.642C999.045 165.157 988.36 166.657 979.105 163.255C970.011 159.913 961.867 151.753 959.85 140.309C943.162 158.294 917.661 160.653 895.429 153.168C872.075 145.304 851.581 126.337 848.085 102.012C846.599 91.6743 848.427 78.5058 852.989 65.9C857.072 54.6136 863.412 43.5968 871.754 35.3426C828.988 0.506715 823.012 -47.5491 842.492 -84.4576C861.899 -121.23 906.363 -146.571 963.813 -136.962ZM1123.68 183.514C1086.57 196.001 1040.74 188.079 1007.33 153.021L1007.37 152.944L1007.39 152.889L1007.05 152.723L1006.94 152.609L1006.9 152.651L1003.76 151.146C999.411 160.479 989.627 162.789 980.471 159.424C971.332 156.065 963.39 147.166 963.389 134.78L959.373 134.78L959.374 134.91L959.257 134.813C944.091 153.714 919.073 156.835 896.693 149.3C874.284 141.754 855.269 123.761 852.058 101.425C850.694 91.9349 852.358 79.4666 856.758 67.3054C861.154 55.156 868.201 43.5396 877.383 35.6517L874.959 32.7447L874.968 32.732C874.948 32.7153 874.927 32.6986 874.906 32.6819L874.789 32.541C874.779 32.5489 874.77 32.5569 874.761 32.5648C833.003 -1.11805 827.421 -47.2715 846.032 -82.5329C864.664 -117.835 907.76 -142.591 964.175 -132.768C964.18 -132.717 964.186 -132.665 964.192 -132.614L968.183 -133.063C966.51 -148.347 968.904 -159.74 974.036 -167.738C979.147 -175.702 987.139 -180.56 997.211 -182.477C1017.19 -186.279 1045.06 -178.42 1072.88 -160.455L1075.15 -158.641C1099.52 -190.019 1132.94 -197.803 1161.05 -187.504C1189.19 -177.194 1212.37 -148.612 1215.82 -106.466L1215.79 -106.451L1217.59 -102.804C1243.93 -116.15 1269.11 -111.456 1285.24 -97.3729C1301.32 -83.3371 1308.61 -59.809 1298.96 -34.7525L1298.67 -34.6001C1323.14 14.0966 1313.22 53.5586 1288.83 76.381C1264.32 99.3183 1224.84 105.831 1189.41 87.7619L1187.61 91.4032L1187.78 91.4905C1189.15 138.16 1160.81 171.022 1123.68 183.514Z"/>
<path d="M1007.33 153.021C1040.74 188.079 1086.57 196.001 1123.68 183.514C1160.81 171.022 1189.15 138.16 1187.78 91.4905L1187.61 91.4032L1189.41 87.7619C1224.84 105.831 1264.32 99.3183 1288.83 76.381C1313.22 53.5586 1323.14 14.0966 1298.67 -34.6001L1298.96 -34.7525C1308.61 -59.809 1301.32 -83.3371 1285.24 -97.3729C1269.11 -111.456 1243.93 -116.15 1217.59 -102.804L1215.79 -106.451L1215.82 -106.466C1212.37 -148.612 1189.19 -177.194 1161.05 -187.504C1132.94 -197.803 1099.52 -190.019 1075.15 -158.641L1072.88 -160.455C1045.06 -178.42 1017.19 -186.279 997.211 -182.477C987.139 -180.56 979.147 -175.702 974.036 -167.738C968.904 -159.74 966.51 -148.347 968.183 -133.063L964.192 -132.614L964.175 -132.768C907.76 -142.591 864.664 -117.835 846.032 -82.5329C827.421 -47.2715 833.003 -1.11805 874.761 32.5648L874.789 32.541L874.906 32.6819L874.968 32.732L874.959 32.7447L877.383 35.6517C868.201 43.5396 861.154 55.156 856.758 67.3054C852.358 79.4666 850.694 91.9349 852.058 101.425C855.269 123.761 874.284 141.754 896.693 149.3C919.073 156.835 944.091 153.714 959.257 134.813L959.374 134.91L959.373 134.78L963.389 134.78C963.39 147.166 971.332 156.065 980.471 159.424C989.627 162.789 999.411 160.479 1003.76 151.146L1006.9 152.651L1006.94 152.609L1007.05 152.723L1007.39 152.889L1007.37 152.944L1007.33 153.021Z"/>
</mask>
<path fill-rule="evenodd" clip-rule="evenodd" d="M963.813 -136.962C962.933 -150.79 965.417 -161.774 970.671 -169.962C976.486 -179.025 985.528 -184.4 996.47 -186.483C1017.73 -190.53 1046.44 -182.23 1074.48 -164.251C1099.64 -194.361 1133.54 -201.914 1162.41 -191.338C1191.85 -180.55 1215.7 -151.042 1219.69 -108.306C1246 -120.006 1271.24 -114.971 1287.86 -100.462C1304.96 -85.5347 1312.71 -60.7394 1303.18 -34.5536C1327.14 14.6425 1317.15 55.423 1291.55 79.3772C1266.73 102.604 1227.57 109.661 1191.83 93.4399C1192.38 141.035 1162.99 174.582 1124.95 187.382C1086.72 200.244 1039.67 192.209 1005.2 156.642C999.045 165.157 988.36 166.657 979.105 163.255C970.011 159.913 961.867 151.753 959.85 140.309C943.162 158.294 917.661 160.653 895.429 153.168C872.075 145.304 851.581 126.337 848.085 102.012C846.599 91.6743 848.427 78.5058 852.989 65.9C857.072 54.6136 863.412 43.5968 871.754 35.3426C828.988 0.506715 823.012 -47.5491 842.492 -84.4576C861.899 -121.23 906.363 -146.571 963.813 -136.962ZM1123.68 183.514C1086.57 196.001 1040.74 188.079 1007.33 153.021L1007.37 152.944L1007.39 152.889L1007.05 152.723L1006.94 152.609L1006.9 152.651L1003.76 151.146C999.411 160.479 989.627 162.789 980.471 159.424C971.332 156.065 963.39 147.166 963.389 134.78L959.373 134.78L959.374 134.91L959.257 134.813C944.091 153.714 919.073 156.835 896.693 149.3C874.284 141.754 855.269 123.761 852.058 101.425C850.694 91.9349 852.358 79.4666 856.758 67.3054C861.154 55.156 868.201 43.5396 877.383 35.6517L874.959 32.7447L874.968 32.732C874.948 32.7153 874.927 32.6986 874.906 32.6819L874.789 32.541C874.779 32.5489 874.77 32.5569 874.761 32.5648C833.003 -1.11805 827.421 -47.2715 846.032 -82.5329C864.664 -117.835 907.76 -142.591 964.175 -132.768C964.18 -132.717 964.186 -132.665 964.192 -132.614L968.183 -133.063C966.51 -148.347 968.904 -159.74 974.036 -167.738C979.147 -175.702 987.139 -180.56 997.211 -182.477C1017.19 -186.279 1045.06 -178.42 1072.88 -160.455L1075.15 -158.641C1099.52 -190.019 1132.94 -197.803 1161.05 -187.504C1189.19 -177.194 1212.37 -148.612 1215.82 -106.466L1215.79 -106.451L1217.59 -102.804C1243.93 -116.15 1269.11 -111.456 1285.24 -97.3729C1301.32 -83.3371 1308.61 -59.809 1298.96 -34.7525L1298.67 -34.6001C1323.14 14.0966 1313.22 53.5586 1288.83 76.381C1264.32 99.3183 1224.84 105.831 1189.41 87.7619L1187.61 91.4032L1187.78 91.4905C1189.15 138.16 1160.81 171.022 1123.68 183.514Z" fill="#FFFCF8"/>
<path d="M1007.33 153.021C1040.74 188.079 1086.57 196.001 1123.68 183.514C1160.81 171.022 1189.15 138.16 1187.78 91.4905L1187.61 91.4032L1189.41 87.7619C1224.84 105.831 1264.32 99.3183 1288.83 76.381C1313.22 53.5586 1323.14 14.0966 1298.67 -34.6001L1298.96 -34.7525C1308.61 -59.809 1301.32 -83.3371 1285.24 -97.3729C1269.11 -111.456 1243.93 -116.15 1217.59 -102.804L1215.79 -106.451L1215.82 -106.466C1212.37 -148.612 1189.19 -177.194 1161.05 -187.504C1132.94 -197.803 1099.52 -190.019 1075.15 -158.641L1072.88 -160.455C1045.06 -178.42 1017.19 -186.279 997.211 -182.477C987.139 -180.56 979.147 -175.702 974.036 -167.738C968.904 -159.74 966.51 -148.347 968.183 -133.063L964.192 -132.614L964.175 -132.768C907.76 -142.591 864.664 -117.835 846.032 -82.5329C827.421 -47.2715 833.003 -1.11805 874.761 32.5648L874.789 32.541L874.906 32.6819L874.968 32.732L874.959 32.7447L877.383 35.6517C868.201 43.5396 861.154 55.156 856.758 67.3054C852.358 79.4666 850.694 91.9349 852.058 101.425C855.269 123.761 874.284 141.754 896.693 149.3C919.073 156.835 944.091 153.714 959.257 134.813L959.374 134.91L959.373 134.78L963.389 134.78C963.39 147.166 971.332 156.065 980.471 159.424C989.627 162.789 999.411 160.479 1003.76 151.146L1006.9 152.651L1006.94 152.609L1007.05 152.723L1007.39 152.889L1007.37 152.944L1007.33 153.021Z" fill="#FFFCF8"/>
<path d="M1007.33 153.021L934.949 222.011L887.65 172.388L916.867 110.384L1007.33 153.021ZM1123.68 183.514L1091.78 88.7339L1091.78 88.7339L1123.68 183.514ZM1007.37 152.944L1097.96 195.308L1097.89 195.445L1097.83 195.581L1007.37 152.944ZM1007.39 152.889L1050.67 62.7454L1139.9 105.595L1097.98 195.253L1007.39 152.889ZM1007.05 152.723L963.769 242.867L947.106 234.865L934.403 221.435L1007.05 152.723ZM1006.94 152.609L937.198 80.9302L1009.88 10.2127L1079.58 83.8971L1006.94 152.609ZM1006.9 152.651L1076.64 224.33L1026.58 273.03L963.619 242.795L1006.9 152.651ZM1003.76 151.146L913.123 108.884L955.854 17.2152L1047.04 61.002L1003.76 151.146ZM980.471 159.424L945.987 253.284L945.987 253.284L980.471 159.424ZM963.389 134.78L963.381 34.7801L1063.38 34.7883L1063.39 134.788L963.389 134.78ZM959.373 134.78L859.374 134.972L859.165 34.7716L959.365 34.7798L959.373 134.78ZM959.374 134.91L1059.37 134.718L1059.82 347.63L895.68 211.991L959.374 134.91ZM959.257 134.813L881.258 72.2214L944.743 -6.89639L1022.95 57.7325L959.257 134.813ZM896.693 149.3L928.591 54.5286L928.591 54.5286L896.693 149.3ZM852.058 101.425L951.041 87.213L951.041 87.213L852.058 101.425ZM856.758 67.3054L762.724 33.266L762.724 33.266L856.758 67.3054ZM877.383 35.6517L954.171 -28.3957L1017.31 47.2948L942.552 111.511L877.383 35.6517ZM874.959 32.7447L798.171 96.7921L746.516 34.8653L796.078 -28.7326L874.959 32.7447ZM846.032 -82.5329L934.471 -35.845L934.471 -35.845L846.032 -82.5329ZM968.183 -133.063L1067.59 -143.929L1078.44 -44.841L979.386 -33.6907L968.183 -133.063ZM974.036 -167.738L1058.2 -113.722L1058.2 -113.722L974.036 -167.738ZM997.211 -182.477L1015.92 -84.2403L1015.92 -84.2402L997.211 -182.477ZM1072.88 -160.455L1127.12 -244.454L1131.39 -241.702L1135.34 -238.534L1072.88 -160.455ZM1075.15 -158.641L1154.12 -97.2849L1091.89 -17.1811L1012.68 -80.5624L1075.15 -158.641ZM1161.05 -187.504L1195.44 -281.4L1195.44 -281.4L1161.05 -187.504ZM1215.82 -106.466L1315.49 -114.61L1320.97 -47.6716L1261.08 -17.2859L1215.82 -106.466ZM1215.79 -106.451L1126.07 -62.3119L1082.46 -150.943L1170.54 -195.631L1215.79 -106.451ZM1217.59 -102.804L1262.79 -13.5986L1172.54 32.1288L1127.86 -58.6656L1217.59 -102.804ZM1285.24 -97.3729L1219.48 -22.0502L1219.48 -22.0503L1285.24 -97.3729ZM1298.96 -34.7525L1392.29 1.18208L1378.65 36.6201L1344.92 54.0677L1298.96 -34.7525ZM1298.67 -34.6001L1209.32 10.289L1164.94 -78.0164L1252.71 -123.42L1298.67 -34.6001ZM1288.83 76.381L1220.49 3.36218L1220.49 3.36213L1288.83 76.381ZM1189.41 87.7619L1099.79 43.3798L1144.69 -47.2968L1234.83 -1.3191L1189.41 87.7619ZM1187.61 91.4032L1142.27 180.529L1054.1 135.667L1097.99 47.0211L1187.61 91.4032ZM1187.78 91.4905L1233.11 2.36504L1285.99 29.2676L1287.74 88.5639L1187.78 91.4905ZM1079.71 84.0317C1082.93 87.4083 1085.54 88.4079 1087.15 88.7898C1089.18 89.2711 1090.89 89.0342 1091.78 88.7339L1155.58 278.294C1083.14 302.667 996.237 286.309 934.949 222.011L1079.71 84.0317ZM1097.83 195.581L1097.79 195.659L916.867 110.384L916.904 110.306L1097.83 195.581ZM1097.98 195.253L1097.96 195.308L916.776 110.579L916.801 110.525L1097.98 195.253ZM1050.32 62.5795L1050.67 62.7454L964.115 243.033L963.769 242.867L1050.32 62.5795ZM1079.58 83.8971L1079.69 84.0107L934.403 221.435L934.295 221.322L1079.58 83.8971ZM937.155 80.9717L937.198 80.9302L1076.68 224.289L1076.64 224.33L937.155 80.9717ZM1047.04 61.002L1050.17 62.5073L963.619 242.795L960.485 241.289L1047.04 61.002ZM1014.96 65.5632C1002.41 60.9537 984.036 58.2053 963.413 64.8077C940.834 72.0365 922.658 88.4299 913.123 108.884L1094.4 193.407C1080.51 223.194 1055.27 245.409 1024.42 255.285C995.532 264.535 967.685 261.259 945.987 253.284L1014.96 65.5632ZM1063.39 134.788C1063.39 100.223 1040.24 74.8549 1014.96 65.5632L945.987 253.284C902.428 237.274 863.394 194.109 863.389 134.772L1063.39 134.788ZM959.365 34.7798L963.381 34.7801L963.397 234.78L959.382 234.78L959.365 34.7798ZM859.374 135.102L859.374 134.972L1059.37 134.588L1059.37 134.718L859.374 135.102ZM1022.95 57.7325L1023.07 57.829L895.68 211.991L895.563 211.894L1022.95 57.7325ZM928.591 54.5286C925.723 53.5629 919.676 52.1784 910.955 53.9317C901.175 55.898 889.719 61.6762 881.258 72.2214L1037.26 197.406C987.594 259.295 912.803 260.236 864.796 244.071L928.591 54.5286ZM951.041 87.213C949.158 74.1116 943.106 65.5891 939.082 61.4251C935.196 57.4035 931.537 55.5207 928.591 54.5286L864.796 244.071C818.23 228.391 763.202 186.086 753.076 115.636L951.041 87.213ZM950.792 101.345C950.879 101.106 951.124 100.404 951.327 98.9153C951.487 97.74 951.966 93.6492 951.041 87.213L753.076 115.636C748.765 85.6445 754.412 56.2369 762.724 33.266L950.792 101.345ZM942.552 111.511C946.61 108.026 948.699 105.058 949.524 103.767C950.399 102.399 950.702 101.594 950.792 101.345L762.724 33.266C771.221 9.78433 786.54 -18.1527 812.215 -40.2079L942.552 111.511ZM951.746 -31.3027L954.171 -28.3957L800.596 99.6992L798.171 96.7921L951.746 -31.3027ZM796.078 -28.7326L796.088 -28.7454L953.849 94.2093L953.839 94.222L796.078 -28.7326ZM951.575 -31.5073L951.693 -31.3664L798.119 96.7301L798.002 96.5892L951.575 -31.5073ZM811.985 110.395C733.859 47.3766 716.144 -50.6889 757.592 -129.221L934.471 -35.845C935.565 -37.9178 936.382 -41.3638 935.568 -45.1888C935.188 -46.9756 934.608 -48.0241 934.456 -48.2631C934.318 -48.4808 934.986 -47.3234 937.537 -45.2658L811.985 110.395ZM757.592 -129.221C798.051 -205.88 885.65 -247.943 981.314 -231.285L947.036 -34.2504C937.475 -35.9153 933.459 -34.0571 933.118 -33.8985C932.417 -33.5724 933.407 -33.8279 934.471 -35.845L757.592 -129.221ZM979.386 -33.6907L975.394 -33.2414L952.989 -231.986L956.98 -232.435L979.386 -33.6907ZM1058.2 -113.722C1063.6 -122.135 1066 -129.975 1066.99 -135.494C1067.48 -138.201 1067.62 -140.321 1067.65 -141.713C1067.68 -143.103 1067.6 -143.87 1067.59 -143.929L868.777 -122.197C865.501 -152.119 868.609 -188.62 889.871 -221.754L1058.2 -113.722ZM1015.92 -84.2402C1021.34 -85.2721 1028.89 -87.6171 1037 -92.7176C1045.36 -97.9719 1052.71 -105.163 1058.2 -113.722L889.871 -221.754C912.28 -256.675 946.324 -274.591 978.5 -280.714L1015.92 -84.2402ZM1018.63 -76.457C1015.26 -78.6371 1012.24 -80.2747 1009.71 -81.4591C1007.16 -82.6541 1005.36 -83.2715 1004.39 -83.5495C1003.39 -83.8405 1003.72 -83.6385 1005.35 -83.5044C1006.92 -83.3748 1010.63 -83.2334 1015.92 -84.2403L978.5 -280.714C1034.78 -291.425 1089.52 -268.74 1127.12 -244.454L1018.63 -76.457ZM1012.68 -80.5624L1010.41 -82.3771L1135.34 -238.534L1137.61 -236.719L1012.68 -80.5624ZM1126.66 -93.609C1132.58 -91.4383 1139.59 -91.118 1146.07 -93.108C1152.69 -95.1407 1154.95 -98.3486 1154.12 -97.2849L996.171 -219.997C1045.34 -283.287 1123.65 -307.699 1195.44 -281.4L1126.66 -93.609ZM1116.16 -98.3221C1115.78 -102.901 1114.71 -103.072 1116.2 -100.977C1117.61 -99.0049 1120.87 -95.7306 1126.66 -93.609L1195.44 -281.4C1264.9 -255.951 1309.29 -190.367 1315.49 -114.61L1116.16 -98.3221ZM1170.54 -195.631L1170.57 -195.646L1261.08 -17.2859L1261.05 -17.2704L1170.54 -195.631ZM1127.86 -58.6656L1126.07 -62.3119L1305.52 -150.589L1307.31 -146.943L1127.86 -58.6656ZM1219.48 -22.0503C1226.8 -15.657 1235.64 -11.9213 1244.42 -10.9638C1253.46 -9.97781 1259.95 -12.1561 1262.79 -13.5986L1172.38 -192.01C1232.78 -222.612 1302.27 -215.246 1351.01 -172.695L1219.48 -22.0503ZM1205.64 -70.687C1203.48 -65.0783 1202.17 -56.4418 1204.6 -46.5165C1206.94 -36.921 1212.23 -28.377 1219.48 -22.0502L1351.01 -172.695C1399.16 -130.649 1416.81 -62.5117 1392.29 1.18208L1205.64 -70.687ZM1252.71 -123.42L1253 -123.573L1344.92 54.0677L1344.63 54.2201L1252.71 -123.42ZM1220.49 3.36213C1218.53 5.19951 1216.72 7.51339 1215.32 10.2143C1213.9 12.9584 1213.19 15.5457 1212.92 17.5543C1212.34 21.9654 1214.21 20.0351 1209.32 10.289L1388.02 -79.4891C1428.87 1.81111 1419.31 91.2381 1357.17 149.4L1220.49 3.36213ZM1234.83 -1.3191C1234.52 -1.48033 1228.17 -3.8182 1220.49 3.36218L1357.17 149.4C1300.48 202.455 1215.16 213.143 1143.99 176.843L1234.83 -1.3191ZM1097.99 47.0211L1099.79 43.3798L1279.03 132.144L1277.23 135.785L1097.99 47.0211ZM1142.44 180.616L1142.27 180.529L1232.94 2.27775L1233.11 2.36504L1142.44 180.616ZM1091.78 88.7339C1092.66 88.4363 1091.43 88.5937 1089.79 90.8168C1088.96 91.9315 1088.36 93.1539 1088.03 94.2311C1087.69 95.3185 1087.85 95.5214 1087.82 94.4171L1287.74 88.5639C1290.54 183.917 1229.82 253.319 1155.58 278.294L1091.78 88.7339ZM874.968 32.732L1000.24 -123.151L749.738 188.651L874.968 32.732ZM874.906 32.6819L749.605 188.544L1000.18 -123.201L874.906 32.6819ZM874.789 32.541L744.485 -119.208L1005.2 184.196L874.789 32.541ZM874.761 32.5648L1005.17 184.22L744.28 -119.031L874.761 32.5648ZM964.175 -132.768L765.329 -111.348L1163 -154.362L964.175 -132.768ZM964.192 -132.614L1163.02 -154.208L765.381 -110.867L964.192 -132.614ZM963.813 -136.962L1163.41 -149.641L1179.43 101.873L930.853 60.2978L963.813 -136.962ZM970.671 -169.962L802.341 -277.994L802.341 -277.995L970.671 -169.962ZM996.47 -186.483L1033.89 9.99117L1033.89 9.99118L996.47 -186.483ZM1074.48 -164.251L1227.96 -35.9913L1114.95 99.2508L966.553 4.11262L1074.48 -164.251ZM1162.41 -191.338L1093.63 -3.54663L1093.63 -3.54667L1162.41 -191.338ZM1219.69 -108.306L1301 74.433L1046.46 187.659L1020.56 -89.7455L1219.69 -108.306ZM1287.86 -100.462L1419.39 -251.107L1419.39 -251.107L1287.86 -100.462ZM1303.18 -34.5536L1123.37 52.9812L1086.24 -23.2761L1115.24 -102.971L1303.18 -34.5536ZM1291.55 79.3772L1154.88 -66.6605L1154.88 -66.6605L1291.55 79.3772ZM1191.83 93.4399L991.848 95.6961L988.25 -218.585L1274.47 -88.6769L1191.83 93.4399ZM1124.95 187.382L1061.14 -2.17783L1061.14 -2.17784L1124.95 187.382ZM1005.2 156.642L843.105 39.461L982.805 -153.807L1148.8 17.4594L1005.2 156.642ZM979.105 163.255L910.137 350.976L910.137 350.976L979.105 163.255ZM959.85 140.309L813.232 4.25819L1086.97 -290.751L1156.82 105.635L959.85 140.309ZM895.429 153.168L959.225 -36.3744L959.225 -36.3744L895.429 153.168ZM848.085 102.012L650.119 130.435L650.119 130.435L848.085 102.012ZM852.989 65.9L664.921 -2.17877L664.921 -2.17883L852.989 65.9ZM871.754 35.3426L998.05 -119.715L1170.69 20.9147L1012.44 177.514L871.754 35.3426ZM842.492 -84.4576L1019.37 8.91822L1019.37 8.91825L842.492 -84.4576ZM749.738 188.651C749.677 188.603 749.624 188.56 749.605 188.544L1000.21 -123.181C1000.21 -123.177 1000.22 -123.175 1000.22 -123.173C1000.22 -123.171 1000.22 -123.171 1000.22 -123.172C1000.22 -123.172 1000.21 -123.178 1000.2 -123.187L749.738 188.651ZM744.28 -119.031C744.302 -119.05 744.384 -119.12 744.485 -119.208L1005.09 184.289C1005.14 184.251 1005.17 184.22 1005.2 184.199C1005.22 184.179 1005.24 184.164 1005.24 184.16L744.28 -119.031ZM765.381 -110.867C765.366 -111.004 765.348 -111.167 765.329 -111.348L1163.02 -154.188C1163.01 -154.266 1163.01 -154.326 1163 -154.361L765.381 -110.867ZM764.218 -124.283C761.468 -167.455 767.825 -224.205 802.341 -277.994L1139 -61.9305C1163.01 -99.3427 1164.4 -134.124 1163.41 -149.641L764.218 -124.283ZM802.341 -277.995C842.786 -341.024 903.97 -372.475 959.048 -382.957L1033.89 9.99118C1067.09 3.67424 1110.19 -17.0258 1139 -61.9299L802.341 -277.995ZM959.048 -382.957C1052.54 -400.748 1134.77 -363.154 1182.4 -332.614L966.553 4.11262C966.649 4.17417 967.441 4.67836 969.064 5.4339C970.644 6.16922 973.582 7.40872 977.944 8.6568C984.885 10.6428 1005.19 15.4543 1033.89 9.99117L959.048 -382.957ZM920.999 -292.51C997.028 -383.495 1118.45 -420.433 1231.19 -379.129L1093.63 -3.54667C1117.97 5.37065 1145.5 6.79657 1171.78 -0.675751C1198.32 -8.22179 1216.99 -22.8703 1227.96 -35.9913L920.999 -292.51ZM1231.19 -379.129C1342.25 -338.438 1408.62 -236.216 1418.83 -126.867L1020.56 -89.7455C1022.79 -65.8684 1041.46 -22.662 1093.63 -3.54663L1231.19 -379.129ZM1138.38 -291.045C1232.13 -332.744 1341.13 -319.439 1419.39 -251.107L1156.33 50.1833C1201.36 89.4982 1259.86 92.7331 1301 74.433L1138.38 -291.045ZM1419.39 -251.107C1499.45 -181.204 1528.59 -69.0934 1491.13 33.8639L1115.24 -102.971C1096.83 -52.3854 1110.47 10.1347 1156.33 50.1832L1419.39 -251.107ZM1483 -122.089C1538.83 -7.4193 1528.16 131.891 1428.23 225.415L1154.88 -66.6605C1134.91 -47.9737 1121.62 -22.6538 1117.88 4.16217C1114.2 30.48 1120.94 47.9925 1123.37 52.9812L1483 -122.089ZM1428.23 225.415C1341.52 306.557 1215.04 323.595 1109.2 275.557L1274.47 -88.6769C1240.11 -104.273 1191.94 -101.348 1154.88 -66.6605L1428.23 225.415ZM1391.82 91.1837C1393.47 234.985 1299.6 339.648 1188.75 376.943L1061.14 -2.17784C1045.19 3.18952 1027.42 14.1497 1013.25 32.9155C998.184 52.8675 991.621 75.918 991.848 95.6961L1391.82 91.1837ZM1188.75 376.943C1080.43 413.386 951.873 388.966 861.597 295.825L1148.8 17.4594C1127.47 -4.547 1093 -12.8974 1061.14 -2.17783L1188.75 376.943ZM1167.29 273.823C1093.95 375.297 977.391 375.695 910.137 350.976L1048.07 -24.4655C999.329 -42.3805 904.144 -44.9836 843.105 39.461L1167.29 273.823ZM910.137 350.976C841.727 325.833 778.601 264.182 762.884 174.983L1156.82 105.635C1145.13 39.3239 1098.3 -6.00642 1048.07 -24.4655L910.137 350.976ZM1106.47 276.359C1019.84 369.715 902.455 366.557 831.634 342.71L959.225 -36.3744C932.867 -45.2497 866.481 -53.1282 813.232 4.25819L1106.47 276.359ZM831.634 342.71C760.156 318.642 667.47 251.143 650.119 130.435L1046.05 73.589C1040.84 37.3512 1023.71 10.9094 1008.04 -5.28648C992.791 -21.0502 975.729 -30.8171 959.225 -36.3744L831.634 342.71ZM650.119 130.435C642.739 79.0874 652.539 32.0388 664.921 -2.17877L1041.06 133.979C1043.32 127.717 1045.26 120.444 1046.43 111.909C1047.52 103.912 1048.5 90.658 1046.05 73.589L650.119 130.435ZM664.921 -2.17883C676.582 -34.4061 696.928 -73.0492 731.063 -106.829L1012.44 177.514C1021.68 168.373 1027.9 159.658 1031.99 152.89C1036.12 146.042 1039 139.665 1041.06 133.979L664.921 -2.17883ZM1019.37 8.91825C1030.44 -12.0553 1035.1 -38.2129 1029.51 -64.8396C1023.72 -92.4327 1009.09 -110.718 998.05 -119.715L745.457 190.4C630.422 96.6961 600.68 -54.8074 665.612 -177.834L1019.37 8.91825ZM930.853 60.2978C939.424 61.7314 955.409 61.6261 973.917 52.9355C991.775 44.5504 1008.41 29.6789 1019.37 8.91822L665.612 -177.833C728.388 -296.776 861.098 -356.914 996.774 -334.222L930.853 60.2978ZM765.364 -111.019L765.348 -111.173L1163 -154.362L1163.02 -154.208L765.364 -111.019ZM744.349 -119.09L744.377 -119.114L1005.2 184.196L1005.17 184.22L744.349 -119.09ZM1000.18 -123.201L1000.24 -123.151L749.692 188.615L749.63 188.565L1000.18 -123.201Z" fill="#FFFCF8" mask="url(#path-7-inside-3_1295_237)"/>
</g>
<defs>
<clipPath id="clip0_1295_237">
<rect width="1208" height="596" rx="30" fill="white"/>
</clipPath>
</defs>
</svg>
